<?xml version="1.0" standalone="no"?>
<!DOCTYPE svg PUBLIC "-//W3C//DTD SVG 20010904//EN"
 "http://www.w3.org/TR/2001/REC-SVG-20010904/DTD/svg10.dtd">
<svg version="1.0" xmlns="http://www.w3.org/2000/svg"
 width="300.000000pt" height="387.000000pt" viewBox="0 0 300.000000 387.000000"
 preserveAspectRatio="xMidYMid meet">
<metadata>
Created by potrace 1.10, written by Peter Selinger 2001-2011
</metadata>
<g transform="translate(0.000000,387.000000) scale(0.100000,-0.100000)"
fill="#000000" stroke="none">
<path d="M165 3842 c0 -15 -4 -44 -8 -64 -6 -29 -5 -38 6 -38 8 0 19 -12 26
-26 10 -23 9 -30 -10 -50 -27 -29 -55 -31 -64 -4 -8 24 -30 26 -39 4 -4 -12
-15 -15 -37 -12 -16 3 -32 1 -35 -4 -3 -4 2 -8 11 -8 17 0 56 -20 66 -34 9
-11 29 2 29 19 0 8 7 11 19 8 17 -4 18 -9 8 -36 -12 -36 -46 -69 -64 -62 -7 2
-15 0 -18 -5 -11 -18 32 -10 58 10 l26 20 3 -27 c4 -33 -7 -93 -19 -102 -17
-13 -32 -51 -27 -66 4 -9 1 -27 -7 -41 -11 -21 -18 -24 -43 -19 -23 5 -27 4
-16 -4 8 -6 23 -11 33 -11 9 0 17 -5 17 -10 0 -6 11 -8 26 -4 18 5 32 0 50
-17 29 -27 31 -39 4 -39 -11 0 -20 -5 -20 -11 0 -6 8 -8 19 -4 25 8 36 -9 55
-80 16 -64 14 -84 -5 -41 -12 26 -29 35 -29 16 0 -5 4 -10 8 -10 8 0 42 -52
42 -64 0 -3 -10 -6 -22 -6 -30 0 -83 -33 -104 -65 -16 -25 -44 -34 -44 -15 0
6 -4 10 -10 10 -20 0 -9 -20 15 -26 18 -5 26 -15 31 -43 7 -37 7 -41 -1 -41
-7 0 -45 -39 -45 -46 0 -4 7 -1 16 7 13 10 17 10 24 0 6 -11 10 -9 18 4 9 17
11 17 34 -6 26 -26 58 -27 58 -2 0 9 -8 22 -17 29 -17 13 -17 15 5 33 12 11
18 22 13 26 -6 3 -8 12 -5 20 4 10 0 12 -14 8 -11 -3 -23 -15 -27 -26 -4 -14
-8 -17 -12 -9 -2 6 -9 9 -15 6 -11 -7 -28 13 -28 34 0 9 10 11 35 6 24 -4 35
-2 35 5 0 7 -5 9 -10 6 -16 -10 -50 5 -44 19 6 16 76 56 98 56 11 0 17 -10 18
-32 2 -50 7 -88 15 -143 5 -27 7 -76 5 -107 l-4 -57 -29 21 c-16 12 -27 28
-25 35 3 7 1 13 -4 13 -6 0 -10 -7 -10 -15 0 -16 -34 -38 -44 -28 -3 3 -6 -1
-6 -10 0 -9 4 -18 10 -22 5 -3 7 -12 4 -19 -3 -7 8 -25 25 -38 16 -14 31 -33
33 -41 2 -9 -15 -39 -37 -67 l-40 -51 -18 22 c-10 12 -20 19 -23 16 -3 -3 3
-16 15 -28 14 -15 18 -26 11 -33 -5 -5 -10 -24 -10 -40 0 -23 -3 -27 -12 -18
-15 15 -38 16 -38 1 0 -6 7 -9 15 -5 10 4 23 -8 40 -34 29 -47 42 -53 20 -10
-24 46 -18 110 11 110 7 0 11 6 8 14 -9 23 41 50 77 42 18 -3 28 -2 24 4 -3 6
-20 10 -36 10 l-30 0 18 25 c23 32 28 31 63 -7 16 -18 30 -28 30 -21 0 7 -9
17 -20 23 -15 8 -20 21 -20 49 0 44 20 59 43 33 17 -19 20 -32 18 -84 -1 -29
-5 -38 -18 -39 -14 0 -13 -2 4 -9 13 -5 23 -16 23 -24 0 -8 4 -17 8 -20 5 -3
8 12 6 32 -1 20 -3 37 -4 37 -2 0 -3 22 -4 49 -1 40 -6 52 -30 71 l-28 23 38
26 c21 14 32 26 25 26 -8 0 -23 -7 -33 -17 -17 -15 -18 -15 -18 1 0 10 15 33
34 52 19 19 31 34 27 34 -4 0 -12 -5 -19 -12 -16 -16 -15 -9 3 41 18 51 21
131 7 188 -6 27 -6 45 0 51 6 6 6 12 -1 16 -10 7 -16 -12 -12 -41 1 -8 -10 -7
-38 4 -39 15 -39 16 -46 83 -7 72 3 110 30 110 8 0 15 5 15 10 0 14 -13 13
-28 -2 -16 -16 -15 -8 3 35 10 25 20 35 30 31 8 -4 15 -2 15 3 0 16 60 74 70
68 5 -3 10 1 10 10 0 9 -4 14 -9 10 -5 -3 -11 0 -14 7 -2 7 -3 5 -2 -4 2 -13
-8 -21 -38 -29 -23 -6 -47 -13 -54 -15 -6 -1 -10 -11 -7 -21 2 -10 -7 -47 -20
-83 -14 -36 -25 -56 -25 -46 -1 28 -48 104 -69 110 -10 4 -19 12 -19 19 -1 6
-6 27 -12 45 -8 28 -7 36 11 54 11 11 22 37 25 58 l5 37 24 -22 c13 -12 24
-34 24 -48 0 -31 16 -43 35 -27 12 10 17 8 24 -11 l10 -24 0 26 c1 14 6 30 13
37 8 8 8 15 -1 26 -9 11 -8 17 4 30 21 20 11 21 -20 0 -14 -9 -21 -22 -18 -30
3 -8 0 -14 -6 -14 -6 0 -11 7 -11 15 0 8 -9 15 -19 15 -18 0 -61 43 -61 60 0
5 19 6 42 3 26 -4 39 -2 35 4 -4 6 -17 8 -29 6 -13 -2 -31 2 -41 9 -18 13 -18
16 -2 56 23 57 57 82 111 82 38 0 50 -6 84 -40 41 -41 49 -44 28 -11 -23 38
55 99 83 65 18 -22 32 -16 25 10 -3 14 -2 28 4 31 5 3 10 15 10 26 0 16 -4 18
-18 10 -12 -6 -23 -5 -36 5 -25 18 -36 9 -31 -24 4 -20 -3 -36 -28 -64 l-34
-37 -38 34 c-31 29 -35 37 -25 50 8 9 9 15 2 15 -17 0 -24 -18 -14 -37 9 -16
5 -18 -28 -20 -45 -3 -76 22 -47 38 21 12 22 26 2 46 -9 8 -19 28 -22 44 -7
38 -18 44 -18 11z m305 -97 c0 -8 -7 -15 -15 -15 -13 0 -14 3 -3 15 16 18 18
18 18 0z m-370 -105 c0 -5 -4 -10 -10 -10 -5 0 -10 5 -10 10 0 6 5 10 10 10 6
0 10 -4 10 -10z m170 -198 c0 -10 -51 -35 -57 -28 -9 9 8 25 21 20 8 -3 17 -1
21 5 7 13 15 14 15 3z m37 -464 c13 -12 23 -32 23 -45 0 -22 -1 -23 -16 -9 -8
9 -20 16 -26 16 -6 0 1 -9 16 -21 34 -27 34 -63 -1 -154 -14 -39 -26 -80 -27
-92 -1 -11 -4 -19 -8 -17 -3 2 -8 -1 -11 -8 -2 -7 -3 -4 -1 7 13 85 13 163 1
248 -14 95 -14 97 6 97 12 0 31 -10 44 -22z m-147 -124 c0 -8 -19 -13 -24 -6
-3 5 1 9 9 9 8 0 15 -2 15 -3z m56 -172 c54 -43 23 -113 -34 -76 -16 10 -22
19 -14 22 17 5 15 42 -3 42 -33 0 -14 21 25 29 3 0 15 -7 26 -17z"/>
<path d="M281 2855 c0 -5 6 -19 14 -29 8 -11 15 -15 15 -10 0 6 -7 19 -15 30
-8 10 -14 15 -14 9z"/>
<path d="M461 3804 c0 -11 3 -14 6 -6 3 7 2 16 -1 19 -3 4 -6 -2 -5 -13z"/>
<path d="M697 3787 c5 -28 -19 -51 -46 -44 -10 2 -25 1 -32 -4 -10 -6 -3 -9
21 -9 35 -1 70 -19 70 -37 0 -22 -38 -41 -94 -48 -33 -4 -66 -9 -74 -13 -12
-4 -14 -1 -8 14 12 28 12 39 2 42 -5 1 -10 -8 -10 -20 -1 -13 -22 -44 -49 -70
-26 -26 -47 -55 -48 -65 -1 -12 -4 -10 -9 7 -12 36 -12 100 0 100 6 0 10 5 10
12 0 23 -32 -19 -33 -44 -2 -24 -2 -24 -42 -9 -22 9 -53 29 -69 46 -19 21 -25
23 -18 9 8 -15 8 -24 0 -32 -9 -9 -6 -18 10 -35 12 -13 22 -28 22 -35 0 -6 4
-14 10 -17 7 -4 7 3 0 20 -18 46 0 55 56 29 37 -18 58 -68 48 -111 -4 -15 -2
-23 6 -23 10 0 10 -3 0 -15 -9 -11 -9 -21 3 -45 15 -29 8 -48 -14 -34 -8 5 -8
1 0 -14 15 -28 14 -30 -9 -42 -11 -6 -20 -7 -19 -3 3 17 -1 33 -8 33 -5 0 -9
-233 -10 -519 l-1 -518 26 24 c19 18 27 20 34 11 6 -11 8 -11 8 0 0 10 5 10
21 2 12 -7 20 -20 19 -33 -4 -43 0 -63 9 -49 14 23 18 -164 15 -665 -3 -397
-6 -488 -18 -517 -12 -29 -28 -42 -88 -71 -40 -19 -81 -45 -90 -56 -26 -30
-23 -92 6 -137 28 -44 54 -64 117 -86 24 -8 36 -15 26 -16 -29 0 -90 29 -120
58 -39 36 -57 74 -57 116 0 60 17 81 102 126 62 33 83 50 94 75 11 26 14 145
15 590 1 496 -3 601 -18 558 -6 -16 -45 -17 -59 -3 -6 6 -18 8 -27 4 -14 -5
-16 -59 -14 -556 1 -303 3 -544 5 -535 5 24 30 28 45 7 8 -11 17 -17 22 -12 4
4 0 -8 -9 -26 -9 -18 -29 -37 -44 -43 -33 -13 -72 -4 -72 17 0 8 -4 13 -9 10
-4 -3 -6 -17 -4 -31 4 -20 0 -27 -22 -35 -14 -5 -38 -7 -53 -4 -22 5 -25 4
-14 -7 6 -7 12 -22 12 -32 0 -32 -42 -97 -62 -97 -17 0 -17 2 -3 36 19 45 19
55 0 30 -8 -11 -15 -28 -15 -38 0 -22 -13 -23 -30 -3 -18 21 -4 65 20 65 11 0
20 5 20 10 0 14 -23 13 -38 -2 -19 -19 -15 6 6 33 10 13 24 37 32 53 19 36 58
56 70 36 5 -8 12 -11 15 -8 15 15 -9 30 -37 24 -28 -5 -29 -4 -26 26 5 51 78
76 78 27 0 -10 5 -19 10 -19 13 0 13 6 0 31 -15 27 2 24 30 -6 14 -15 21 -31
17 -45 -5 -21 8 -28 16 -7 6 16 -19 64 -40 76 -14 8 -15 12 -4 25 7 9 9 16 3
16 -5 0 -12 -7 -16 -15 -3 -8 -14 -15 -25 -15 -26 0 -71 -21 -71 -33 0 -5 -7
-4 -15 3 -8 7 -15 18 -15 25 0 8 -4 15 -10 17 -18 6 28 68 51 68 15 0 20 -5
17 -17 -6 -22 39 -28 59 -8 20 21 16 55 -7 55 -10 0 -24 8 -29 18 -9 15 -10
14 -8 -8 1 -17 -4 -25 -17 -28 -14 -3 -17 0 -13 12 4 9 2 16 -3 16 -6 0 -10
-6 -10 -12 -1 -7 -14 -29 -31 -48 l-29 -35 2 35 c1 19 -1 52 -5 72 -6 30 -5
37 10 41 15 4 15 5 2 6 -9 0 -19 11 -22 22 -4 14 -11 20 -21 16 -10 -4 -20 2
-27 14 -6 11 -13 18 -16 15 -3 -3 0 -13 7 -21 11 -13 10 -18 -6 -30 -15 -11
-16 -16 -7 -26 9 -9 9 -17 1 -33 -11 -21 -10 -21 10 -3 31 28 62 8 62 -40 0
-29 -3 -34 -12 -25 -15 15 -38 16 -38 1 0 -5 4 -8 10 -4 12 7 50 -30 50 -50 0
-17 -46 -39 -61 -29 -5 3 -9 0 -9 -5 0 -6 20 -9 51 -8 56 4 69 -8 69 -60 l0
-27 -16 22 c-15 21 -54 31 -54 13 0 -5 9 -7 19 -4 27 7 46 -29 30 -60 -16 -30
-15 -30 -38 -15 -16 9 -23 10 -32 1 -9 -9 -7 -11 8 -7 12 3 24 1 28 -6 12 -19
-15 -68 -41 -74 -13 -4 -24 -11 -24 -16 0 -14 17 -13 26 2 5 7 10 3 16 -12 7
-18 5 -26 -7 -32 -8 -5 -15 -14 -15 -20 0 -7 5 -6 14 1 11 10 23 8 55 -8 22
-12 47 -21 55 -21 46 0 77 -118 37 -140 -14 -7 -22 -7 -26 0 -4 6 -10 8 -15 5
-11 -7 -20 19 -21 63 -1 32 -2 34 -8 12 -4 -14 -3 -41 3 -61 7 -29 5 -50 -13
-105 -12 -38 -25 -92 -29 -119 -7 -45 -10 -50 -37 -55 -19 -4 -26 -8 -18 -13
7 -4 21 -3 32 3 18 9 20 6 23 -22 4 -40 -10 -78 -29 -78 -7 0 -13 11 -13 24 0
13 -7 30 -17 37 -15 13 -15 12 -4 -9 15 -28 6 -98 -14 -106 -8 -3 -19 -15 -26
-28 -11 -21 -9 -21 18 5 16 15 32 27 35 27 3 0 11 -14 17 -32 6 -17 14 -29 17
-25 3 3 0 15 -6 27 -8 16 -8 25 0 35 6 7 10 17 9 21 -1 5 1 17 6 28 7 17 9 17
21 -5 18 -32 17 -39 -7 -104 -12 -31 -27 -55 -35 -55 -8 0 -14 5 -14 10 0 15
-17 12 -35 -7 -16 -15 -16 -17 3 -32 21 -16 21 -17 3 -68 -10 -29 -14 -53 -9
-53 4 0 8 4 8 8 0 5 14 28 30 51 25 34 34 40 48 32 14 -7 21 -5 29 9 10 15 8
20 -18 30 l-29 12 20 33 c11 18 20 43 20 56 0 29 9 19 45 -48 34 -64 29 -97
-18 -119 l-32 -15 31 5 c18 3 39 -1 49 -8 16 -11 16 -14 1 -28 -23 -24 -20
-35 4 -13 11 10 20 13 20 8 0 -6 9 -13 20 -16 11 -3 20 -1 20 4 0 5 -7 9 -15
9 -17 0 -39 36 -30 51 4 6 21 8 38 4 29 -5 29 -4 -10 16 -27 13 -43 28 -43 39
0 17 4 16 56 -3 48 -18 60 -27 76 -61 18 -38 20 -25 3 17 -6 14 -2 17 21 17
15 0 36 -8 47 -17 11 -10 17 -12 13 -5 -6 10 6 12 55 10 69 -3 76 -9 97 -88
l10 -35 -2 40 c0 22 -7 46 -13 53 -7 7 -13 18 -13 23 0 15 22 10 34 -7 13 -18
64 -10 63 9 -1 27 28 77 45 77 27 0 31 18 8 37 -11 10 -23 33 -27 53 l-7 35
-8 -40 c-8 -35 -6 -42 14 -57 13 -10 18 -18 12 -18 -6 0 -17 7 -24 15 -16 19
-46 19 -53 1 -8 -21 13 -37 35 -25 14 8 18 6 18 -8 0 -36 -17 -46 -88 -50
l-69 -4 11 35 c8 27 16 36 33 36 15 0 20 5 18 18 -1 10 -11 17 -24 16 -13 0
-20 4 -17 11 2 7 -2 24 -9 39 -14 26 -14 26 24 26 43 0 65 -18 55 -46 -6 -16
-5 -17 7 -6 11 10 11 16 1 32 -16 27 -16 27 17 22 16 -2 32 1 35 7 5 7 -3 9
-24 5 -39 -8 -38 1 2 22 19 10 44 14 65 11 19 -4 33 -2 33 5 0 6 -18 9 -45 6
-25 -2 -45 -1 -45 3 0 13 27 38 45 42 11 2 5 3 -13 1 -27 -2 -33 0 -28 12 3 9
6 18 6 20 0 2 7 4 15 4 8 0 15 4 15 10 0 5 -5 9 -12 7 -7 -1 -17 8 -22 20 -8
16 -16 21 -32 17 -12 -3 -36 4 -57 16 -20 12 -37 18 -37 13 0 -4 14 -14 30
-22 25 -10 28 -16 19 -27 -9 -10 -9 -17 0 -28 6 -7 9 -22 5 -32 -5 -17 -5 -18
6 -2 16 25 50 2 50 -33 0 -36 -8 -41 -31 -18 -20 20 -59 26 -59 9 0 -5 9 -9
21 -7 28 3 50 -30 29 -43 -36 -23 -230 -4 -306 29 -58 26 -118 84 -144 137
-11 26 -19 48 -17 50 7 7 102 -38 110 -52 4 -8 13 -14 18 -14 21 0 98 -72 108
-101 10 -29 34 -39 46 -19 3 6 16 10 28 10 12 0 29 5 37 10 11 7 6 8 -17 4
-19 -4 -39 -2 -47 5 -7 6 -20 9 -27 6 -8 -3 -23 9 -37 30 -12 20 -34 41 -47
47 -30 13 -33 32 -5 24 11 -3 29 -9 40 -12 11 -3 20 -14 20 -25 0 -10 5 -19
10 -19 13 0 13 27 0 35 -6 4 -8 11 -5 16 4 5 -8 9 -25 9 -46 0 -70 16 -70 47
0 25 1 25 18 10 29 -27 34 -20 7 9 -33 36 -31 51 8 68 17 8 25 15 17 15 -8 0
-22 -3 -30 -9 -9 -5 -17 -5 -21 1 -8 13 -39 0 -39 -17 0 -8 6 -14 14 -14 17 0
23 -23 18 -62 -5 -34 -14 -34 -81 -7 -57 24 -62 39 -36 101 20 50 55 70 118
66 46 -3 54 -6 67 -33 13 -26 20 -30 52 -27 59 5 101 -53 65 -90 -11 -11 31
-12 245 -10 257 3 258 3 258 -18 0 -30 -18 -60 -36 -60 -9 0 -14 -7 -12 -17 2
-14 13 -18 44 -17 23 1 46 4 52 8 13 8 4 36 -10 33 -10 -2 -33 61 -26 69 2 1
57 4 122 5 l118 2 28 -44 c41 -64 160 -160 160 -129 0 6 -8 10 -17 10 -12 0
-4 14 28 48 25 26 56 62 68 79 l22 33 130 0 c129 0 130 0 118 -21 -7 -14 -17
-19 -30 -16 -15 4 -19 0 -19 -20 0 -20 4 -24 20 -20 11 3 20 2 20 -1 -1 -22
-27 -35 -103 -51 l-87 -17 5 20 c5 18 4 17 -8 -3 -8 -13 -28 -30 -46 -37 -31
-13 -31 -13 -25 11 4 16 2 25 -6 25 -6 0 -8 -4 -5 -10 12 -19 -13 -43 -70 -66
-32 -13 -62 -24 -67 -24 -15 0 -8 39 10 50 15 10 14 10 -5 5 -24 -6 -38 9 -38
40 0 11 -6 20 -14 20 -8 0 -34 20 -58 45 l-44 45 30 -50 c22 -36 27 -53 19
-62 -17 -21 9 -45 35 -32 16 9 23 8 34 -7 32 -43 13 -58 -53 -39 -27 8 -85 18
-128 22 l-79 8 33 32 c18 17 29 36 26 41 -3 6 1 17 10 26 8 9 13 26 11 38 -4
22 -4 22 -6 2 0 -12 -12 -32 -26 -45 -13 -13 -25 -31 -25 -40 0 -34 -33 -57
-90 -63 -50 -5 -53 -4 -36 9 20 15 38 19 65 16 7 -2 10 3 6 9 -4 6 -16 8 -27
4 -17 -5 -19 -3 -13 18 5 19 3 18 -13 -7 -28 -44 -41 -52 -106 -60 l-59 -7 22
31 c12 17 31 31 42 31 10 0 19 5 19 10 0 14 -27 13 -36 -1 -4 -8 -9 -7 -15 2
-12 20 -11 29 4 24 17 -7 41 11 33 24 -4 6 -13 11 -21 11 -8 0 -17 15 -21 36
-7 38 -24 29 -24 -13 0 -13 -8 -24 -19 -28 -26 -8 -16 -39 10 -32 28 7 34 -28
12 -66 -16 -26 -27 -33 -63 -38 -51 -7 -45 -11 20 -13 36 -1 47 -6 59 -27 17
-31 8 -67 -13 -50 -18 15 -39 -8 -26 -29 6 -8 10 -10 10 -5 0 13 40 -52 40
-65 0 -6 -16 -10 -35 -10 -32 0 -35 2 -25 19 6 12 6 22 1 26 -5 3 -11 -5 -13
-17 -2 -16 -11 -24 -28 -26 -14 -2 -29 -8 -34 -12 -5 -5 27 -7 70 -4 83 5 131
-7 131 -31 0 -11 -4 -12 -13 -4 -9 7 -12 6 -10 -8 2 -12 12 -18 30 -19 15 -1
40 -11 57 -23 34 -25 37 -20 9 16 -14 18 -17 30 -10 43 11 20 4 30 -22 30 -21
0 -22 -4 -6 -33 9 -18 5 -17 -25 8 -19 17 -36 33 -36 36 -2 13 142 40 153 29
7 -7 4 -12 -12 -16 -25 -7 -30 -24 -7 -24 7 0 18 8 24 18 8 13 14 15 27 6 26
-15 29 -34 6 -34 -11 0 -22 -7 -25 -15 -7 -16 11 -31 33 -27 8 1 25 -15 38
-35 l23 -38 -5 42 c-3 31 0 43 9 43 7 0 15 9 18 19 6 24 -20 36 -40 19 -11 -9
-16 -9 -23 3 -7 10 -4 16 9 21 18 6 38 28 26 28 -3 0 -14 -5 -24 -12 -15 -9
-26 -9 -48 1 l-28 13 52 20 c57 22 106 19 97 -7 -7 -16 11 -21 21 -6 3 5 -4
16 -16 25 -21 14 -19 16 46 45 95 44 165 40 152 -8 -3 -12 -1 -21 4 -21 5 0 9
9 9 21 0 30 24 18 28 -15 2 -15 -3 -34 -10 -43 -11 -14 -11 -15 2 -11 9 3 16
20 18 41 3 32 7 37 28 37 17 0 23 -4 18 -12 -4 -7 -3 -8 4 -4 23 14 12 26 -24
26 -32 0 -35 2 -24 15 11 13 11 18 0 28 -10 10 -12 9 -7 -5 3 -10 2 -20 -4
-23 -11 -8 -79 13 -79 24 0 4 33 20 73 35 39 15 92 36 116 46 46 19 86 14 103
-13 4 -6 10 -8 15 -4 7 7 -8 21 -32 30 -19 8 0 15 45 19 39 3 46 0 55 -20 11
-25 25 -29 25 -7 0 9 -7 18 -15 21 -30 12 -2 24 55 24 48 0 61 -4 73 -21 9
-12 18 -16 21 -10 4 5 -2 14 -11 20 -16 9 -15 10 9 11 19 0 31 -9 47 -36 22
-37 28 -74 11 -74 -5 0 -10 -6 -10 -12 1 -7 9 -3 19 9 18 22 20 22 59 6 51
-19 67 -54 56 -115 -9 -47 -6 -119 5 -130 3 -4 6 17 5 47 -1 51 7 68 21 45 3
-6 14 -10 23 -10 12 0 9 4 -8 13 -20 10 -26 22 -30 62 -3 28 -9 55 -13 61 -4
7 1 14 11 16 20 5 55 -18 65 -42 4 -12 6 -12 6 2 1 9 -8 23 -19 31 -20 14 -20
15 6 32 29 19 74 13 74 -10 0 -8 -9 -19 -20 -25 -24 -13 -26 -26 -3 -34 10 -4
20 -1 26 9 8 15 11 15 30 -3 25 -23 67 -46 67 -37 0 4 -12 22 -26 41 -22 28
-24 37 -14 49 15 18 8 28 -20 30 -14 1 -20 -5 -20 -19 0 -20 0 -20 -16 2 -8
12 -22 22 -30 22 -11 0 -13 7 -8 28 9 36 23 51 33 33 6 -9 11 -10 15 -2 10 16
-21 26 -38 12 -18 -15 -26 -4 -19 30 4 23 2 29 -12 29 -13 0 -16 6 -12 21 5
19 4 20 -12 5 -10 -9 -23 -16 -29 -16 -7 0 -12 -5 -12 -12 0 -6 -7 -19 -16
-29 -15 -16 -14 -17 5 -12 12 3 21 1 21 -6 0 -6 14 -11 30 -11 27 0 30 -3 30
-30 0 -17 -9 -38 -22 -50 -29 -27 -35 -25 -30 9 2 16 -1 32 -8 36 -9 5 -10 1
-5 -14 9 -30 -3 -61 -26 -61 -10 0 -19 5 -19 10 0 6 -20 31 -45 55 -24 25 -38
45 -30 45 7 0 17 4 20 10 4 6 -3 6 -21 0 -14 -6 -42 -8 -61 -4 -31 6 -33 8
-18 24 8 9 12 20 8 23 -3 4 -11 -3 -17 -16 -10 -18 -21 -22 -69 -25 -33 -2
-57 1 -57 7 0 17 20 23 34 12 20 -17 29 14 11 33 -17 16 -20 42 -6 50 13 9
464 10 491 2 l25 -8 -22 17 c-28 20 -29 41 -4 55 59 31 181 -17 219 -87 20
-37 26 -41 42 -33 25 13 60 -19 60 -54 0 -17 9 -29 30 -40 19 -9 28 -10 24 -3
-4 7 -3 9 1 5 5 -5 9 -19 11 -32 2 -23 0 -24 -34 -19 -20 3 -50 14 -67 26
l-30 20 24 -27 c30 -33 100 -54 112 -34 5 7 9 19 9 26 0 6 5 12 12 12 6 0 3 9
-7 20 -10 11 -13 20 -8 20 6 0 16 -6 22 -14 10 -11 9 -21 -3 -44 -16 -30 -13
-42 11 -42 10 0 11 5 4 19 -8 14 -7 20 4 25 17 6 29 -9 19 -26 -4 -6 -3 -8 3
-5 17 11 73 -16 79 -38 4 -11 20 -32 35 -46 31 -28 38 -59 13 -59 -9 0 -12 5
-8 12 4 6 3 8 -3 5 -11 -7 -28 20 -24 36 1 5 -2 6 -7 3 -15 -9 -91 25 -86 39
3 7 -2 15 -12 19 -13 5 -14 4 -6 -7 25 -29 -2 -23 -80 19 -45 24 -88 44 -95
44 -8 0 -28 7 -44 16 -29 15 -30 15 -20 -4 9 -17 7 -21 -12 -26 -27 -6 -100 9
-105 23 -5 15 1 25 16 27 23 4 44 26 33 37 -15 15 -45 0 -64 -32 -19 -32 -22
-45 -8 -37 5 4 7 -3 4 -13 -3 -13 2 -24 16 -33 24 -15 27 -28 7 -28 -8 0 -35
-23 -61 -52 -50 -56 -82 -108 -65 -108 5 0 10 4 10 9 0 10 23 21 60 27 14 3
45 26 70 52 l45 47 5 -41 c8 -54 29 -85 74 -109 33 -18 39 -19 64 -5 14 9 33
28 42 42 14 25 13 28 -5 42 -27 20 -41 20 -20 0 20 -21 15 -35 -18 -54 -32
-18 -51 -9 -83 38 -29 42 -21 76 23 103 31 19 41 21 79 12 29 -7 44 -7 44 0 0
5 7 4 15 -3 8 -7 15 -9 15 -5 0 4 6 2 13 -4 8 -6 16 -10 18 -8 2 1 -5 -5 -15
-14 -20 -17 -49 -14 -93 10 -16 8 -24 6 -41 -12 -17 -19 -19 -29 -12 -65 4
-23 11 -46 15 -50 3 -4 4 5 1 21 -3 15 -8 38 -11 51 -6 28 4 40 22 25 9 -9 17
-8 27 0 18 15 66 -2 66 -24 0 -13 34 -29 56 -25 14 3 54 -11 54 -19 0 -3 10
-12 23 -20 l22 -14 -21 24 c-12 13 -24 32 -28 43 -4 13 -11 16 -24 11 -32 -15
-66 -11 -70 7 -5 28 42 42 77 23 16 -8 31 -12 35 -10 3 3 4 2 1 -1 -2 -4 16
-30 41 -58 24 -28 47 -61 50 -73 4 -13 12 -23 20 -23 7 0 11 6 8 13 -2 7 9 17
27 24 24 9 30 17 27 31 -4 16 -1 18 16 14 13 -3 -5 20 -50 64 -79 77 -76 70
-103 210 -24 123 -14 184 34 224 14 12 18 11 25 -1 6 -9 2 -22 -14 -39 -47
-51 -67 -90 -46 -90 6 0 10 6 10 13 0 7 16 28 35 47 23 23 35 43 35 61 0 15 5
31 12 35 21 13 -2 -79 -26 -106 -36 -38 -46 -64 -46 -115 0 -46 24 -85 60 -97
7 -2 14 -15 15 -29 1 -13 9 -25 18 -27 13 -3 15 3 10 35 -3 21 -12 43 -21 50
-12 10 -13 15 -2 28 12 14 10 15 -12 10 -20 -5 -29 -2 -37 13 -13 25 -15 72
-2 72 5 0 8 7 7 16 -2 30 19 25 31 -6 15 -41 34 -40 23 1 -6 20 -5 49 2 79 9
41 9 53 -6 74 -9 14 -23 26 -31 26 -11 0 -14 7 -9 24 3 14 1 41 -6 61 -7 20
-13 47 -15 61 -1 14 -7 30 -13 36 -7 7 -7 16 1 30 16 24 -9 43 -30 23 -17 -18
-17 -20 13 -52 14 -15 21 -29 15 -31 -8 -3 -8 -10 0 -24 6 -12 9 -43 7 -69 -3
-27 -2 -49 3 -49 4 0 6 -7 5 -16 -3 -18 -34 -39 -43 -30 -4 3 -1 6 6 6 7 0 9
5 6 10 -4 6 -11 8 -16 5 -5 -4 -9 2 -9 11 0 14 3 15 12 6 15 -15 28 -15 28 -1
0 5 -4 7 -10 4 -6 -3 -10 2 -10 13 0 20 -30 52 -67 71 -27 14 -63 14 -63 1 0
-5 8 -10 18 -10 35 0 82 -79 82 -135 l0 -26 -22 21 c-13 11 -33 23 -46 27 -31
7 -25 39 6 35 12 -2 22 1 22 7 0 17 -19 22 -39 12 -15 -8 -20 -7 -25 5 -9 23
-7 32 7 37 6 2 3 3 -8 1 -16 -3 -20 2 -20 21 1 13 8 31 15 40 12 15 12 19 -3
30 -24 17 -21 34 8 47 19 8 28 8 41 -3 15 -12 17 -12 12 1 -3 10 -17 15 -42
14 -41 -1 -40 -4 -24 48 13 43 42 57 78 38 12 -6 24 -9 27 -7 10 10 -40 29
-64 24 -15 -3 -22 0 -19 7 3 6 10 28 17 49 13 38 45 57 70 41 8 -5 9 -3 4 5
-4 7 -18 11 -31 8 -29 -5 -29 -3 -7 34 23 38 37 42 68 17 19 -15 29 -18 37
-10 8 8 8 15 1 24 -5 7 -7 24 -4 37 l7 25 22 -28 c12 -16 22 -37 22 -47 0 -11
4 -19 9 -19 6 0 6 12 -1 30 -8 26 -7 34 8 51 10 11 24 17 31 15 17 -7 17 10 1
18 -7 3 -1 4 14 3 33 -5 49 22 18 30 -14 4 -22 17 -27 46 l-6 40 -17 -42 c-9
-23 -20 -38 -24 -34 -5 4 -6 -1 -4 -12 2 -11 10 -19 16 -18 17 4 15 -17 -4
-38 -15 -17 -17 -17 -45 3 l-28 21 25 19 c13 11 24 27 24 36 0 11 -9 5 -28
-17 -48 -58 -50 -30 -5 68 43 91 45 93 64 75 10 -9 22 -14 26 -11 3 4 1 7 -5
7 -6 0 -20 14 -32 30 -21 29 -21 32 -6 55 9 14 25 25 36 25 11 0 20 5 20 10 0
25 -72 -10 -76 -37 -2 -10 -5 -31 -7 -48 -2 -16 -10 -48 -17 -69 l-13 -40 -17
44 c-9 24 -28 51 -41 60 -23 15 -23 14 3 -17 31 -38 42 -81 33 -124 l-7 -31
-26 24 c-47 43 -83 61 -95 49 -18 -18 -46 -13 -74 15 -14 14 -28 23 -31 20 -8
-9 29 -46 47 -46 9 -1 -1 -10 -21 -21 -21 -11 -38 -24 -38 -29 0 -16 14 -12
32 10 22 25 64 36 82 21 23 -19 26 -59 4 -64 -10 -3 -21 -1 -24 4 -7 12 -54
11 -54 -1 0 -6 11 -8 25 -4 30 8 31 0 7 -79 -16 -50 -20 -56 -32 -43 -14 18
-40 21 -40 5 0 -5 4 -8 9 -4 20 12 41 -27 41 -76 0 -46 -1 -49 -16 -35 -8 9
-21 13 -27 9 -6 -4 -2 -9 10 -14 28 -10 31 -17 34 -77 2 -29 5 -52 8 -52 8 0
5 -51 -4 -72 -4 -10 0 -27 9 -40 20 -28 20 -38 1 -38 -8 0 -15 -5 -15 -11 0
-6 7 -9 15 -5 10 3 20 -5 31 -25 17 -34 13 -59 -10 -59 -18 0 -37 -32 -28 -47
10 -15 52 -27 52 -14 0 6 -7 11 -15 11 -8 0 -15 4 -15 8 0 16 25 32 49 31 21
-1 22 -2 6 -6 -11 -3 -24 -10 -30 -15 -7 -8 -6 -9 3 -4 8 5 12 0 12 -12 0 -11
3 -34 6 -51 5 -24 3 -31 -10 -31 -9 0 -16 -4 -16 -9 0 -5 9 -7 19 -4 16 4 20
-2 26 -36 4 -23 11 -43 15 -46 5 -3 5 9 -1 27 -12 43 -12 71 1 63 6 -3 10 -1
10 5 0 7 -6 10 -14 7 -9 -4 -16 4 -20 25 -11 54 -8 63 13 36 21 -26 51 -129
51 -172 0 -26 0 -26 -30 -11 -20 10 -30 23 -30 38 0 18 -2 19 -10 7 -8 -13
-14 -8 -12 11 1 4 -8 15 -18 24 -22 20 -26 55 -9 72 7 7 1 14 -21 23 -37 15
-118 103 -126 136 -3 13 -9 22 -13 20 -10 -7 -11 85 0 105 14 26 26 24 44 -8
10 -19 14 -21 11 -8 -7 30 -8 71 -7 461 l1 360 30 -2 c27 -2 32 2 37 26 5 26
8 28 37 23 17 -3 35 -12 39 -20 10 -16 27 -17 27 -2 0 5 -5 7 -10 4 -5 -3 -10
-1 -10 5 0 6 7 10 16 8 10 -2 19 3 22 11 3 10 -6 12 -44 7 -55 -7 -64 -3 -82
37 -16 38 -16 40 12 22 21 -14 24 -14 36 0 12 14 10 15 -11 10 -39 -10 -54 15
-39 60 12 36 12 36 27 16 15 -22 33 -28 33 -10 0 5 -4 8 -9 4 -6 -3 -15 3 -20
14 -12 21 1 41 40 61 16 9 19 7 19 -14 0 -13 -4 -26 -10 -28 -6 -2 -6 -8 0
-18 8 -13 10 -12 10 3 0 9 4 17 9 17 5 0 7 9 4 21 -8 28 12 39 67 39 42 -1 44
-2 25 -16 -11 -8 -30 -13 -42 -11 -13 2 -23 0 -23 -4 0 -5 8 -9 19 -9 14 0 17
-6 13 -26 -3 -19 -9 -24 -24 -21 -15 4 -19 1 -16 -16 2 -15 9 -21 21 -19 12 2
19 -6 24 -28 6 -34 19 -29 25 10 1 14 7 23 12 22 12 -5 29 26 21 39 -5 7 -12
6 -21 -2 -20 -16 -38 2 -29 29 13 43 61 37 86 -11 9 -15 6 -23 -10 -39 -12
-10 -18 -24 -15 -30 5 -7 10 -3 15 10 19 52 39 1 39 -102 0 -46 -1 -48 -17
-34 -28 23 -43 30 -43 19 0 -6 6 -11 13 -11 8 0 22 -9 32 -20 14 -16 16 -30
12 -72 -4 -35 -3 -46 3 -33 5 11 9 35 9 52 1 26 6 34 25 39 14 3 30 3 35 -1 6
-3 11 -1 11 6 0 7 -13 10 -35 7 -30 -3 -35 -1 -35 17 1 29 38 106 39 79 1 -11
8 -29 16 -40 14 -18 14 -17 5 10 -6 16 -8 36 -5 45 2 9 -2 36 -10 61 -12 35
-14 38 -10 12 3 -19 -3 -50 -12 -75 l-17 -42 -12 70 c-10 58 -9 75 2 98 8 15
10 27 5 27 -5 0 -12 -9 -16 -19 -5 -18 -9 -16 -40 15 -19 19 -32 40 -29 48 5
14 50 16 70 3 8 -4 11 4 9 26 -1 22 -9 36 -26 44 -34 18 -49 16 -49 -6 0 -11
-6 -22 -12 -24 -8 -3 -6 -6 5 -6 16 -1 16 -3 2 -24 -8 -13 -12 -27 -8 -30 3
-4 -5 -7 -20 -7 -18 0 -28 7 -36 28 l-11 27 5 -27 c4 -19 1 -28 -7 -28 -7 0
-23 -3 -35 -6 -16 -5 -25 1 -37 23 -9 17 -15 22 -16 12 0 -9 7 -22 15 -29 14
-11 12 -15 -12 -31 -16 -10 -36 -24 -46 -31 -15 -11 -20 -10 -28 5 -6 9 -15
15 -20 11 -13 -8 9 -34 28 -34 10 0 13 -6 9 -16 -3 -9 -9 -27 -12 -40 -3 -13
-10 -24 -14 -24 -30 0 -31 34 -28 773 2 410 1 742 -2 738 -22 -34 -77 10 -64
51 12 42 23 49 49 32 21 -14 27 -13 64 5 50 26 63 26 85 2 20 -22 18 -82 -2
-89 -8 -2 -12 2 -10 11 2 9 -1 17 -7 18 -22 5 -16 -31 7 -40 22 -9 22 -10 2
-10 -32 -1 -51 26 -36 50 16 26 15 34 -3 19 -23 -19 -18 -57 11 -76 24 -16 27
-16 52 3 22 16 28 29 30 69 4 65 -12 84 -84 104 -64 17 -80 36 -38 46 22 6 32
2 50 -19 22 -26 23 -26 26 -5 2 16 14 25 45 34 53 16 51 19 93 -146 30 -122
49 -317 32 -344 -3 -6 -5 -22 -4 -36 3 -29 -27 -107 -59 -151 -24 -34 -51 -37
-79 -9 -14 14 -20 16 -20 6 0 -12 79 -53 84 -44 2 2 16 24 32 50 31 51 39 56
48 33 3 -8 13 -15 22 -15 13 0 12 4 -6 18 -20 16 -21 23 -15 75 l7 58 22 -20
c23 -22 36 -26 36 -13 0 4 -10 12 -22 17 -18 8 -23 19 -24 51 -1 48 13 52 45
14 11 -14 20 -21 21 -17 0 4 -9 18 -21 30 -16 17 -19 30 -14 57 9 45 9 45 39
25 14 -10 26 -13 26 -8 0 5 -11 15 -24 21 -22 10 -24 16 -23 71 1 34 5 61 8
61 17 0 37 -50 42 -102 1 -10 5 -14 10 -9 4 4 4 19 -1 32 -5 13 -10 53 -10 88
-1 35 -3 66 -6 69 -4 3 -6 -11 -6 -31 0 -57 -32 -59 -43 -2 -3 17 -9 39 -13
49 -6 16 -4 18 10 13 10 -4 23 -4 29 0 7 5 0 10 -18 13 -39 7 -67 57 -41 75 9
7 16 16 16 20 0 4 -7 2 -15 -5 -13 -10 -19 -9 -35 5 -16 14 -18 21 -8 28 9 6
8 7 -4 3 -22 -7 -50 3 -42 15 3 5 1 16 -4 26 -7 11 -6 21 3 29 15 15 55 7 55
-11 0 -6 8 -19 18 -28 33 -30 34 -18 3 21 -22 26 -29 44 -25 60 7 23 28 30 39
12 12 -20 26 2 20 31 -5 22 0 37 21 65 l28 36 -48 -31 c-48 -30 -66 -32 -66
-7 0 7 -7 13 -15 13 -22 0 -18 -36 7 -56 14 -12 19 -24 14 -36 -6 -17 -7 -17
-25 -1 -15 14 -24 15 -40 6 -22 -11 -29 -50 -10 -50 6 0 8 8 4 19 -6 21 14 34
34 21 18 -11 -2 -46 -37 -64 -15 -8 -36 -24 -46 -35 -11 -12 -22 -18 -25 -13
-3 4 -14 0 -24 -11 -18 -18 -18 -19 1 -13 10 4 30 2 43 -3 19 -8 8 -10 -48
-10 -73 -1 -90 -9 -113 -51 -7 -13 -7 -21 2 -26 7 -4 8 -3 4 4 -4 7 -3 12 3
12 13 0 34 -38 27 -49 -11 -16 -45 -19 -66 -4 -11 8 -17 19 -14 25 4 7 2 8 -4
4 -14 -8 -68 18 -75 37 -3 8 -2 29 3 48 4 19 8 28 9 22 1 -7 6 -13 12 -13 5 0
7 6 4 13 -4 6 0 4 8 -6 10 -12 17 -14 22 -7 7 12 -43 79 -82 110 -36 28 -65
25 -86 -9 -9 -16 -17 -37 -17 -47 0 -25 29 -54 48 -48 14 5 13 2 -2 -10 -19
-16 -51 -13 -90 6 -37 20 13 125 53 111 9 -3 -2 8 -24 25 -22 18 -46 36 -52
42 -7 6 -16 11 -20 11 -5 0 -7 11 -6 25 1 13 -2 22 -8 19 -5 -4 -9 -13 -9 -21
0 -8 -6 -15 -12 -16 -7 0 -17 -2 -23 -2 -5 -1 -18 -7 -29 -12 -30 -18 -2 -26
30 -9 27 14 29 13 36 -6 6 -15 13 -19 29 -14 13 4 27 1 39 -10 19 -17 19 -18
-5 -50 -14 -17 -25 -40 -25 -50 0 -13 -6 -11 -28 12 -19 22 -41 32 -75 37 -37
6 -47 11 -47 26 0 25 -15 33 -30 15 -7 -9 -19 -11 -33 -6 -12 4 -37 5 -56 2
l-33 -6 50 -19 c32 -13 53 -27 56 -40 4 -16 7 -17 20 -6 9 7 16 18 16 25 0 10
9 11 40 3 39 -10 40 -11 23 -30 -9 -10 -18 -29 -20 -41 -2 -12 -10 -27 -18
-33 -7 -5 -17 -23 -21 -40 -4 -16 -11 -32 -16 -35 -5 -3 15 -4 44 -2 29 2 61
4 70 4 13 0 15 4 8 12 -6 7 -21 29 -35 50 -24 36 -24 40 -10 67 9 17 22 30 30
30 20 0 75 -71 75 -97 0 -15 11 -30 30 -42 16 -10 27 -20 24 -24 -3 -3 -2 -13
3 -22 9 -15 11 -15 26 -1 8 9 28 16 44 16 l28 1 -27 17 c-16 9 -28 22 -28 29
0 7 -6 13 -12 13 -7 0 1 11 19 25 18 14 34 39 38 57 12 52 28 6 20 -57 -7 -57
8 -85 45 -85 29 0 32 -15 10 -57 -19 -37 -20 -64 -25 -643 -4 -333 -9 -608
-13 -612 -4 -4 -6 264 -4 595 l3 602 25 55 c14 33 18 47 8 35 -47 -58 -46 -43
-63 -2543 l-1 -183 -430 3 -430 3 0 23 c0 13 -4 21 -9 18 -5 -3 -9 0 -8 7 1
35 -5 48 -25 56 -21 8 -21 8 5 13 14 3 26 2 25 -1 -4 -37 14 -56 26 -26 13 34
-33 70 -57 46 -6 -6 -32 -11 -58 -11 -37 0 -50 5 -62 22 -14 22 -16 22 -33 6
-10 -10 -16 -20 -13 -23 3 -2 37 -9 75 -14 67 -10 68 -10 9 -6 -123 9 -186 18
-191 26 -9 15 -41 10 -48 -7 -3 -8 -1 -24 4 -34 6 -10 10 -37 10 -60 l0 -42
-355 5 c-410 6 -428 9 -502 86 -36 37 -43 51 -43 83 0 56 11 71 72 97 97 42
103 46 123 86 20 39 20 62 22 1175 2 624 0 1154 -3 1177 -4 32 -11 44 -27 49
-12 5 -25 7 -30 6 -4 -1 -6 1 -5 5 0 5 -2 16 -6 25 -10 22 38 108 59 108 22 0
57 -43 51 -62 -2 -10 0 -18 5 -18 18 0 8 42 -16 66 -27 27 -28 27 52 42 41 7
55 6 64 -4 6 -7 8 -18 5 -23 -4 -5 -1 -13 5 -17 9 -5 10 2 6 24 -6 28 -4 32
16 32 28 0 47 -18 47 -43 0 -15 -3 -17 -13 -8 -18 14 -27 4 -27 -32 0 -23 -4
-28 -16 -23 -19 7 -47 -12 -38 -25 3 -5 16 -9 30 -9 18 0 29 -9 41 -35 13 -26
20 -32 29 -24 8 7 11 22 7 39 -4 24 -2 29 18 32 34 5 35 27 2 34 -28 5 -29 9
-29 53 1 42 3 46 24 45 12 0 37 -15 55 -32 18 -18 42 -32 53 -32 24 0 64 27
64 42 0 6 -10 2 -23 -10 -13 -12 -30 -22 -39 -22 -21 0 -85 57 -74 67 5 4 11
2 13 -4 7 -19 25 -16 57 12 35 30 29 49 -19 65 -38 12 -71 7 -60 -10 10 -16
14 -49 7 -54 -4 -2 -29 -7 -57 -11 -48 -7 -49 -6 -34 12 21 23 34 79 20 88 -6
3 -11 17 -11 31 0 13 -4 24 -9 24 -4 0 -6 -10 -4 -23z m123 -61 c0 -3 -4 -8
-10 -11 -5 -3 -10 -1 -10 4 0 6 5 11 10 11 6 0 10 -2 10 -4z m20 -31 c0 -8 -4
-15 -9 -15 -13 0 -22 16 -14 24 11 11 23 6 23 -9z m30 6 c0 -6 -4 -13 -10 -16
-5 -3 -10 1 -10 9 0 9 5 16 10 16 6 0 10 -4 10 -9z m-30 -41 c0 -5 -4 -10 -9
-10 -6 0 -13 5 -16 10 -3 6 1 10 9 10 9 0 16 -4 16 -10z m1550 -47 c0 -35 -13
-42 -45 -28 -16 7 -24 14 -17 14 6 1 12 8 12 16 0 9 9 15 25 15 17 0 25 -5 25
-17z m378 -31 c2 -7 -7 -12 -23 -12 -24 0 -26 2 -15 15 14 17 31 16 38 -3z
m-2036 -62 c4 0 8 5 8 12 0 6 3 8 6 5 11 -10 -17 -37 -37 -37 -20 0 -26 15
-10 24 5 3 7 16 5 29 -3 17 -1 16 8 -5 7 -16 15 -28 20 -28z m2068 19 c0 -5 4
-8 9 -5 17 11 33 -24 34 -74 1 -27 6 -50 11 -50 5 0 6 19 3 43 l-5 42 15 -35
c9 -19 19 -43 24 -53 5 -9 12 -37 15 -61 6 -38 3 -45 -17 -60 -13 -9 -19 -16
-13 -16 5 0 16 6 23 13 11 10 12 0 8 -58 -7 -80 -16 -115 -28 -115 -17 0 -9
59 9 69 16 10 16 10 0 11 -12 0 -19 12 -23 38 -4 20 -18 81 -31 135 -14 58
-21 109 -18 124 5 18 3 24 -4 19 -6 -4 -16 2 -21 13 -14 25 -14 31 -1 31 6 0
10 -5 10 -11z m-483 -37 c4 -27 -11 -28 -37 -2 -28 28 -25 40 7 31 16 -4 27
-15 30 -29z m-177 18 c0 -5 -7 -10 -16 -10 -8 0 -12 5 -9 10 3 6 10 10 16 10
5 0 9 -4 9 -10z m20 -24 c0 -8 -8 -14 -17 -14 -10 0 -24 -1 -32 -3 -7 -2 -16
2 -19 10 -3 10 3 13 27 9 17 -2 31 -1 31 4 0 4 2 8 5 8 3 0 5 -6 5 -14z
m-1675 -68 c6 -18 11 -1138 5 -1131 -3 2 -7 257 -10 565 -4 437 -8 562 -17
566 -7 2 -13 -4 -13 -15 0 -15 2 -16 10 -3 8 13 10 13 10 -2 0 -9 -4 -19 -9
-22 -13 -9 -32 19 -25 38 7 19 43 22 49 4z m-19 -525 l-1 -468 -42 0 -43 0 0
375 0 376 34 -4 c20 -2 37 1 41 9 6 9 1 10 -18 5 -14 -3 -33 -3 -41 0 -18 7
-22 34 -5 34 5 0 7 -4 4 -10 -3 -5 0 -7 8 -4 13 5 20 34 8 32 -3 0 -13 0 -21
1 -13 1 -13 3 -1 10 8 5 20 7 28 4 7 -3 13 0 13 6 0 6 -8 11 -17 11 -17 1 -17
1 0 11 9 5 17 17 17 24 0 8 8 15 18 15 14 0 15 2 2 10 -11 7 -11 10 -2 10 7 0
10 5 7 10 -3 6 -2 10 3 10 4 0 8 -208 8 -467z m2013 411 c1 7 61 -51 61 -60 0
-2 -12 -4 -26 -4 -14 0 -22 4 -19 10 3 5 1 18 -5 27 -9 15 -10 14 -4 -7 5 -22
5 -23 -9 -10 -16 16 -21 33 -17 65 2 17 3 17 10 -5 4 -14 8 -21 9 -16z m49
-77 c9 4 12 -50 12 -247 0 -165 -3 -249 -10 -245 -5 3 -10 -1 -10 -10 0 -9 4
-14 10 -10 5 3 9 -30 8 -86 -1 -50 -5 -84 -8 -74 -5 14 -9 15 -14 6 -4 -6 -3
-18 3 -24 5 -7 10 -22 10 -32 -1 -11 1 -67 4 -125 2 -58 3 -85 1 -60 -3 25 -9
55 -16 67 -6 12 -8 39 -5 59 6 33 5 35 -8 18 -18 -24 -19 -58 -1 -73 8 -7 14
-33 14 -68 0 -32 5 -59 13 -63 8 -6 5 -11 -11 -20 -17 -9 -29 -9 -48 -1 l-25
12 6 256 c4 141 7 366 7 500 l0 244 28 -14 c15 -8 33 -12 40 -10z m-2124 -831
c-10 -8 -21 -12 -24 -9 -3 2 4 11 14 19 11 7 22 12 25 9 2 -3 -4 -12 -15 -19z
m64 -30 c3 -37 2 -38 -23 -32 -14 4 -34 2 -45 -4 -28 -15 -25 4 5 26 17 13 21
20 12 26 -8 5 -7 8 6 8 9 0 17 -6 17 -12 0 -9 3 -8 10 2 7 11 4 17 -8 22 -14
7 -14 7 3 5 15 -2 21 -11 23 -41z m2050 -180 c2 -9 -1 -16 -7 -16 -6 0 -11 4
-11 9 0 5 -9 11 -19 14 -24 6 -17 -20 7 -28 16 -5 46 -54 38 -62 -2 -2 -11 8
-20 22 -9 14 -26 25 -37 25 -17 0 -19 6 -18 39 l3 38 30 -12 c17 -7 32 -20 34
-29z m22 34 c0 -5 -5 -10 -11 -10 -5 0 -7 5 -4 10 3 6 8 10 11 10 2 0 4 -4 4
-10z m-2129 -64 c5 -6 7 -1 4 12 -3 19 1 22 26 22 l29 0 -2 -460 c-2 -253 -4
-460 -5 -460 -1 0 -13 4 -27 10 -16 6 -27 6 -31 0 -22 -35 -25 22 -25 404 l0
415 34 -6 c21 -3 36 -1 41 7 5 7 1 11 -11 10 -39 -4 -54 1 -65 21 -8 15 -8 19
0 15 6 -4 11 -2 11 3 0 6 -5 11 -10 11 -7 0 -6 8 2 23 12 21 12 21 16 2 2 -11
8 -24 13 -29z m2084 -37 c4 -11 4 -23 2 -26 -9 -8 -28 7 -22 17 10 15 -12 20
-25 5 -18 -22 -25 -78 -8 -73 8 3 12 18 11 39 -3 31 -2 33 12 15 8 -10 21 -16
29 -13 18 7 32 -9 38 -44 4 -22 1 -25 -14 -21 -10 2 -16 8 -13 12 9 14 -10 19
-25 8 -12 -8 -12 -9 3 -4 10 3 16 2 13 -3 -9 -14 -46 -20 -47 -8 -1 7 -5 -8
-10 -33 -4 -25 -7 -322 -7 -660 1 -338 3 -600 5 -582 3 22 8 30 16 25 8 -4 7
-1 -1 9 -17 21 -12 91 5 80 16 -10 28 -62 14 -62 -6 0 -12 12 -12 28 -1 19 -3
21 -6 8 -3 -10 0 -28 7 -40 6 -12 10 -26 9 -32 -1 -5 -1 -20 0 -33 1 -20 3
-22 16 -11 13 11 14 10 9 -5 -5 -13 -4 -16 4 -11 8 5 10 2 6 -8 -3 -9 -10 -14
-14 -11 -5 3 -6 -4 -3 -15 8 -30 -21 -16 -35 18 -9 22 -11 23 -8 5 2 -13 2
-23 0 -23 -21 0 -25 112 -24 744 0 691 0 691 21 709 28 23 46 22 54 -4z m365
-63 c0 -3 -4 -8 -10 -11 -5 -3 -10 -1 -10 4 0 6 5 11 10 11 6 0 10 -2 10 -4z
m30 -27 c0 -5 -4 -8 -9 -4 -6 3 -14 -3 -20 -12 -12 -20 -14 -13 -5 11 7 18 34
22 34 5z m-357 -36 c4 -3 5 -77 2 -164 -4 -116 -2 -158 6 -153 8 4 8 1 1 -12
-5 -11 -9 -155 -9 -347 0 -208 -4 -332 -10 -338 -6 -6 -26 -9 -44 -7 l-34 3 3
510 c2 382 6 511 15 517 11 7 51 1 70 -9z m50 -208 c16 -15 33 -92 23 -102 -3
-3 -13 -2 -23 2 -10 5 -21 7 -25 7 -5 -1 -8 23 -8 53 0 57 8 66 33 40z m-2495
-410 c0 -27 -15 -34 -24 -10 -4 8 -10 12 -15 9 -5 -3 -9 0 -9 6 0 7 8 9 21 5
15 -5 19 -4 15 4 -4 6 -3 11 2 11 5 0 10 -11 10 -25z m2682 -54 c19 -16 33
-31 30 -34 -3 -2 -24 -2 -47 1 -36 3 -43 8 -43 26 0 44 13 45 60 7z m-2517
-33 c-4 -7 -8 -16 -9 -20 -1 -5 -2 -11 -3 -15 0 -4 -7 2 -15 13 -11 14 -11 21
-3 26 20 12 39 9 30 -4z m2515 -16 c10 -7 3 -28 -28 -94 -22 -46 -53 -121 -69
-166 -29 -85 -41 -95 -41 -33 1 37 19 71 39 71 6 0 11 5 11 10 0 17 -18 11
-35 -12 -16 -22 -16 -22 -12 22 15 138 27 174 66 195 30 16 50 18 69 7z
m-2314 -41 c0 -11 2 -21 6 -21 3 0 7 -18 8 -39 3 -41 -11 -63 -22 -35 -3 8 -9
13 -14 11 -4 -3 -15 0 -24 7 -15 11 -15 15 -2 40 7 16 14 33 14 38 0 12 -25
-12 -33 -32 -3 -8 -6 -1 -6 17 -1 20 5 35 16 41 25 14 58 -2 57 -27z m2369 23
c11 -4 13 -13 8 -32 -6 -22 -13 -27 -39 -27 -18 -1 -31 2 -29 5 1 3 9 17 16
33 15 28 20 31 44 21z m-2374 -190 c-7 -14 -42 -38 -85 -59 -77 -36 -102 -62
-105 -110 -6 -76 0 -94 49 -145 26 -27 46 -54 44 -59 -2 -6 1 -11 6 -11 6 0
12 5 14 11 2 7 12 7 28 1 14 -5 200 -10 413 -11 l388 -2 -2 71 c-1 38 1 73 6
78 5 4 5 1 1 -5 -5 -9 1 -13 21 -14 23 -1 24 -3 6 -6 -20 -4 -22 -11 -25 -70
l-3 -66 -340 2 c-187 1 -356 4 -375 8 -31 5 -33 5 -19 -9 9 -10 26 -14 40 -11
23 4 25 2 21 -30 -2 -19 1 -44 7 -56 9 -17 9 -21 -3 -21 -7 0 -21 15 -30 34
-19 40 -20 50 -4 40 7 -4 8 -3 4 5 -6 9 -11 9 -24 -1 -11 -9 -14 -9 -9 -1 9
14 -65 37 -95 29 -11 -2 -18 -2 -15 1 8 7 -48 53 -64 53 -11 0 -11 3 1 11 11
8 6 9 -20 5 -32 -6 -33 -5 -15 9 19 14 19 16 3 29 -10 7 -18 20 -18 27 0 8
-12 31 -26 52 -20 31 -23 41 -13 53 9 12 15 12 27 2 13 -11 14 -11 7 2 -5 8
-10 27 -11 42 -2 22 3 29 22 34 13 3 21 11 17 17 -4 6 0 8 9 4 9 -3 24 3 34
14 14 15 20 17 32 6 9 -6 13 -7 10 -2 -4 6 2 11 12 12 31 3 70 34 77 62 3 14
8 20 11 12 2 -7 -1 -24 -9 -37z m2085 -132 c-7 -34 -28 -43 -38 -17 -5 13 -9
13 -25 3 -11 -7 -22 -19 -25 -28 -2 -9 -4 -6 -5 8 0 12 5 22 12 22 7 0 8 3 2
8 -25 18 -13 29 25 22 22 -4 37 -4 35 1 -5 6 16 19 23 14 1 -1 -1 -16 -4 -33z
m-14 -44 c8 3 13 3 10 1 -42 -34 -53 -41 -43 -30 9 11 9 17 -3 28 -8 8 -11 19
-8 25 4 7 11 3 18 -9 6 -11 18 -18 26 -15z m-1022 -177 c4 -104 -9 -141 -78
-215 -33 -35 -56 -67 -52 -71 4 -5 -11 5 -34 23 -23 17 -44 29 -47 26 -3 -3
-4 3 -3 13 0 10 -4 17 -11 16 -7 -2 -20 11 -30 27 -9 17 -22 30 -28 31 -5 1
-19 2 -30 3 -14 1 -21 11 -25 37 -6 32 -4 36 13 31 13 -3 18 -1 14 5 -4 6 1
13 11 15 11 3 19 0 19 -8 0 -8 -6 -14 -14 -14 -19 0 -17 -6 28 -68 23 -31 38
-48 34 -37 -31 79 -49 224 -31 253 4 7 50 10 134 7 l127 -3 3 -71z m447 -32
c358 -2 418 -4 472 -20 95 -27 180 -95 262 -209 17 -25 35 -45 39 -45 4 -1 18
-7 31 -14 20 -11 25 -11 33 0 5 9 6 4 2 -15 -5 -21 -4 -27 5 -22 6 4 11 1 11
-8 0 -8 -5 -18 -11 -21 -13 -8 -40 26 -32 40 4 5 2 6 -2 2 -5 -4 -15 3 -22 15
-7 13 -12 18 -13 12 0 -6 10 -23 21 -38 12 -15 19 -29 16 -32 -3 -3 -20 16
-39 43 -32 46 -58 65 -58 41 0 -6 -9 -3 -20 7 -28 25 -25 43 3 19 l22 -19 -19
22 c-10 13 -22 21 -26 18 -4 -2 -19 9 -35 25 -22 23 -32 27 -50 20 -20 -7 -25
-5 -35 20 -6 15 -25 40 -41 54 -16 14 -29 32 -29 39 1 6 9 2 19 -10 11 -13 23
-23 27 -23 4 0 3 5 -4 12 -23 23 -12 31 12 9 14 -14 26 -18 30 -12 8 12 -17
26 -92 52 -52 18 -97 20 -479 26 -378 5 -423 8 -423 22 0 11 3 12 8 4 6 -9
112 -12 417 -14z m579 -22 c-1 -10 21 -32 52 -52 58 -39 69 -51 55 -59 -5 -3
-27 12 -49 33 -22 21 -48 43 -58 49 -19 10 -28 55 -10 49 6 -2 10 -11 10 -20z
m-1384 -18 c13 -24 4 -75 -14 -82 -8 -3 -136 -4 -286 -3 -253 2 -274 4 -286
21 -17 22 -18 40 -4 66 10 18 24 19 295 19 277 0 285 -1 295 -21z m440 9 c0
-4 -4 -8 -8 -8 -9 0 -3 -68 7 -74 3 -3 6 13 6 34 0 21 3 42 7 45 7 8 579 7
586 0 9 -9 6 -65 -4 -75 -14 -14 -614 -24 -614 -10 0 6 -5 8 -12 3 -23 -14
-40 -13 -28 2 9 11 7 12 -12 8 -13 -3 -19 -1 -13 4 6 4 12 22 14 38 1 17 8 33
15 37 14 9 56 6 56 -4z m740 -7 c0 -6 -24 -7 -55 -4 -56 6 -62 2 -49 -31 5
-12 9 -13 19 -3 11 10 10 13 -4 18 -9 4 -2 7 18 6 34 0 34 0 13 -18 -12 -9
-22 -28 -22 -41 -1 -22 -1 -22 -15 -4 -8 11 -15 14 -15 8 0 -7 -3 -12 -7 -12
-5 0 -8 20 -8 45 l0 45 63 0 c34 0 62 -4 62 -9z m44 -2 c-4 -8 0 -9 15 -4 12
4 21 2 21 -4 0 -6 7 -8 15 -5 11 5 13 2 9 -10 -8 -20 -6 -20 -51 5 -49 27 -51
29 -24 29 14 0 20 -4 15 -11z m-1134 -34 c0 -8 -2 -15 -4 -15 -2 0 -6 7 -10
15 -3 8 -1 15 4 15 6 0 10 -7 10 -15z m-737 -19 c15 -22 15 -25 1 -30 -10 -4
-14 -1 -11 6 2 7 0 21 -5 31 -13 25 -3 21 15 -7z m2277 -7 c0 -11 -4 -17 -10
-14 -5 3 -10 13 -10 21 0 8 5 14 10 14 6 0 10 -9 10 -21z m-2624 -89 c23 -57
120 -143 179 -160 45 -13 47 -14 24 -23 -13 -6 -40 -11 -59 -11 -30 -1 -35 -4
-35 -25 0 -24 -21 -39 -56 -40 -13 -1 -49 56 -49 78 0 5 12 7 28 5 24 -3 24
-3 -5 6 -33 11 -37 18 -49 85 -6 36 -6 39 9 27 9 -8 22 -12 29 -9 8 4 7 6 -4
6 -22 1 -38 31 -38 70 0 41 7 39 26 -9z m1313 13 c-36 -48 -69 -83 -69 -75 0
10 69 92 77 92 3 0 -1 -8 -8 -17z m-804 -32 c3 -5 1 -12 -5 -16 -5 -3 -10 -11
-10 -16 0 -6 5 -7 10 -4 6 3 10 1 10 -4 0 -17 -18 -13 -28 7 -15 28 6 59 23
33z m1451 -19 c1 -12 -3 -22 -7 -22 -5 0 -9 4 -9 9 0 5 -3 17 -7 27 -4 12 -2
15 8 12 8 -3 15 -14 15 -26z m-1496 8 c0 -5 -5 -10 -11 -10 -5 0 -7 5 -4 10 3
6 8 10 11 10 2 0 4 -4 4 -10z m1530 0 c0 -5 -4 -10 -10 -10 -5 0 -10 5 -10 10
0 6 5 10 10 10 6 0 10 -4 10 -10z m500 -63 c0 -6 -9 -2 -20 8 -11 10 -20 23
-20 28 0 6 9 2 20 -8 11 -10 20 -23 20 -28z m-675 -18 c20 -18 40 -40 46 -50
9 -17 7 -18 -18 -8 -36 14 -51 27 -69 61 -19 37 -3 36 41 -3z m-825 -52 c38
-2 45 -5 48 -24 2 -13 8 -23 13 -23 12 0 11 7 -1 31 -13 23 -15 23 44 3 59
-20 53 -28 -65 -78 -98 -41 -103 -42 -95 -20 3 9 3 21 -1 27 -5 7 -10 0 -13
-18 -4 -26 -12 -32 -55 -46 -28 -9 -63 -19 -78 -23 -26 -6 -27 -5 -18 13 14
25 14 41 1 41 -6 0 -10 -6 -9 -12 4 -30 -3 -40 -36 -54 -45 -19 -45 -19 -45
16 0 20 5 30 15 30 9 0 15 10 15 26 0 19 -4 25 -15 20 -10 -4 -15 1 -15 16 0
18 4 20 33 14 23 -4 28 -3 17 4 -8 5 -24 10 -35 10 -11 0 -25 8 -32 19 -10 17
-8 19 25 25 76 12 117 7 141 -17 12 -14 19 -31 16 -39 -4 -9 4 -27 19 -43 14
-15 26 -23 26 -17 0 6 -5 14 -11 17 -6 4 -8 14 -5 22 3 8 -7 28 -24 46 l-30
32 28 7 c15 3 43 4 62 1 19 -3 55 -6 80 -6z m1470 -44 c8 -9 -53 7 -84 23 -34
16 -39 17 -32 5 3 -4 -8 -23 -24 -41 -17 -19 -30 -43 -31 -54 -1 -12 -5 -6 -9
14 -5 19 -8 35 -7 36 22 11 48 34 39 34 -7 0 -10 5 -7 10 4 6 11 8 16 5 5 -4
12 0 15 8 5 13 15 11 62 -10 31 -14 59 -27 62 -30z m-2092 5 c6 -6 12 -24 12
-40 0 -27 -3 -30 -24 -24 -14 3 -27 2 -30 -3 -9 -14 4 -41 19 -41 16 0 25 -33
15 -50 -6 -9 -26 -11 -76 -5 -93 10 -97 12 -77 41 9 14 21 23 28 20 20 -7 42
11 28 25 -6 6 -9 28 -6 52 l5 42 -22 -34 c-11 -18 -30 -35 -41 -38 -12 -3 -19
-14 -19 -29 0 -17 4 -22 16 -17 15 5 15 3 -1 -20 -9 -15 -19 -27 -20 -27 -12
0 -103 45 -118 57 -16 16 -15 17 19 29 20 7 43 10 51 7 8 -3 27 9 46 30 18 19
39 37 47 40 21 9 133 -3 148 -15z m1872 11 c0 -8 4 -8 15 1 8 6 19 9 25 5 19
-12 -22 -35 -42 -24 -19 10 -24 29 -8 29 6 0 10 -5 10 -11z m-20 -61 c-11 -12
-20 -29 -21 -37 0 -11 -2 -12 -6 -3 -4 10 -8 10 -19 1 -8 -6 -11 -16 -7 -23 3
-6 3 -8 -2 -4 -4 4 -14 3 -22 -3 -33 -28 -8 10 34 52 46 46 83 60 43 17z
m-1980 -18 c0 -5 -2 -10 -4 -10 -3 0 -8 5 -11 10 -3 6 -1 10 4 10 6 0 11 -4
11 -10z m2450 -54 c32 -41 50 -49 50 -25 0 6 -4 8 -9 4 -17 -10 -21 12 -5 26
14 11 18 10 30 -6 8 -10 14 -24 14 -29 0 -6 -5 -4 -11 4 -8 12 -9 11 -7 -7 2
-12 -1 -22 -6 -22 -5 1 -12 -5 -16 -12 -6 -8 -13 -3 -23 17 -9 16 -30 44 -47
62 -17 17 -25 32 -18 32 7 0 29 -20 48 -44z"/>
<path d="M2863 3375 c-6 -14 -7 -25 -2 -25 11 0 22 25 17 39 -1 6 -8 -1 -15
-14z"/>
<path d="M440 3266 c6 -16 5 -28 -3 -37 -10 -12 -9 -12 2 -2 18 16 21 63 4 63
-9 0 -10 -7 -3 -24z"/>
<path d="M395 2955 c2 -121 4 -230 5 -242 0 -13 5 -23 11 -23 6 0 8 -7 4 -17
-5 -14 -4 -15 6 -6 8 8 9 16 2 25 -12 17 -14 58 -2 58 5 0 9 4 9 10 0 5 -8 7
-17 4 -14 -5 -15 -4 -4 4 10 7 11 15 3 28 -6 10 -7 27 -2 40 5 12 7 24 5 26
-3 2 -7 21 -9 42 l-5 38 18 -24 c18 -23 21 -64 5 -89 -4 -8 -3 -9 4 -5 12 7
10 -152 -2 -172 -3 -6 0 -12 6 -15 7 -3 3 -4 -9 -4 -12 1 -19 5 -17 9 3 4 0
16 -5 25 -9 15 -10 12 -11 -16 0 -24 4 -32 13 -28 29 11 38 -9 35 -76 -2 -55
-6 -65 -17 -57 -13 7 -13 11 0 26 8 10 9 15 3 11 -7 -4 -11 2 -11 18 0 14 3
23 6 21 4 -3 7 4 8 14 2 25 -15 36 -30 21 -9 -9 -8 -11 6 -6 9 4 17 3 17 -3 0
-6 -4 -12 -9 -14 -21 -7 -17 -98 4 -98 7 0 19 -8 24 -17 7 -13 10 94 11 345 0
212 -4 361 -9 358 -5 -3 -8 -23 -7 -43 2 -21 -1 -48 -5 -59 -4 -12 -5 -25 -2
-28 8 -8 11 -116 4 -116 -4 0 -12 10 -20 21 -11 18 -11 23 1 30 10 7 10 9 1 9
-9 0 -13 17 -13 50 0 33 4 50 13 50 8 0 9 3 1 8 -6 4 -10 16 -9 28 1 11 -2 29
-7 40 -4 10 -6 -80 -3 -201z"/>
<path d="M2479 3197 c-3 -21 -1 -41 4 -44 11 -7 27 16 26 37 0 10 -3 8 -9 -5
-6 -17 -8 -14 -12 15 l-3 35 -6 -38z"/>
<path d="M2517 3200 c7 -25 -17 -86 -27 -70 -4 6 -7 -1 -7 -17 0 -15 -2 -41
-6 -58 -6 -23 -5 -25 2 -10 8 16 10 13 11 -20 0 -33 2 -37 11 -22 11 18 10 30
-6 72 -6 17 -4 16 10 -3 11 -15 16 -35 13 -55 -3 -18 -1 -45 3 -62 4 -17 7 35
8 118 0 82 -3 147 -8 147 -5 0 -7 -9 -4 -20z m0 -107 c-3 -10 -5 -2 -5 17 0
19 2 27 5 18 2 -10 2 -26 0 -35z"/>
<path d="M2471 3005 c-1 -12 3 -25 8 -30 14 -15 25 -59 13 -51 -6 4 -9 -9 -6
-36 3 -30 2 -37 -4 -23 -6 13 -10 -24 -11 -105 l-1 -125 20 30 c24 37 25 64 3
103 -15 26 -16 36 -5 64 6 19 12 48 12 64 1 24 2 26 10 12 7 -11 5 -31 -5 -62
-12 -34 -13 -51 -5 -66 15 -28 16 -26 12 23 -2 23 0 37 5 30 5 -6 9 7 10 33 1
24 -3 46 -8 49 -5 4 -9 19 -9 36 0 17 -5 28 -12 27 -6 -2 -15 8 -19 22 -6 21
-7 22 -8 5z m19 -311 c-8 -27 -8 -26 -9 16 0 32 2 40 9 29 5 -9 6 -28 0 -45z"/>
<path d="M2503 2663 c-15 -31 -17 -79 -4 -87 5 -3 12 1 15 10 3 8 2 12 -4 9
-6 -4 -10 7 -10 24 0 16 5 31 11 33 6 2 10 11 8 21 -3 13 -7 11 -16 -10z"/>
<path d="M2469 2580 c-6 -111 -4 -167 6 -190 6 -14 10 -33 7 -44 -2 -11 0 -16
7 -12 16 10 13 52 -4 66 -19 16 -19 22 6 77 19 43 20 48 6 82 -9 20 -18 43
-21 51 -2 8 -6 -5 -7 -30z m18 -82 c-2 -13 -4 -3 -4 22 0 25 2 35 4 23 2 -13
2 -33 0 -45z"/>
<path d="M2495 2318 c-4 -10 -4 -26 0 -35 8 -17 8 -17 12 0 3 9 3 25 0 35 -4
16 -4 16 -12 0z"/>
<path d="M2470 2281 c0 -6 4 -13 10 -16 6 -3 7 1 4 9 -7 18 -14 21 -14 7z"/>
<path d="M440 2360 c0 -5 5 -10 11 -10 5 0 7 5 4 10 -3 6 -8 10 -11 10 -2 0
-4 -4 -4 -10z"/>
<path d="M391 2047 l2 -56 18 23 c24 31 24 42 -1 68 l-20 22 1 -57z m29 4 c0
-6 -4 -13 -10 -16 -5 -3 -10 1 -10 9 0 9 5 16 10 16 6 0 10 -4 10 -9z"/>
<path d="M444 2066 c4 -16 -1 -32 -15 -50 -14 -17 -18 -33 -13 -44 6 -14 9
-11 15 13 l8 30 -1 -30 c0 -55 4 -61 13 -15 11 66 11 120 -2 120 -7 0 -9 -9
-5 -24z"/>
<path d="M390 1829 c0 -85 4 -149 8 -142 4 6 7 69 6 140 0 70 2 108 5 83 4
-33 8 -40 14 -27 11 29 8 47 -13 74 l-20 26 0 -154z"/>
<path d="M425 1860 c-16 -36 -16 -41 -2 -63 12 -19 16 -54 16 -161 0 -85 -4
-136 -10 -136 -6 0 -8 10 -4 23 5 20 5 20 -6 4 -9 -15 -7 -26 7 -53 17 -31 17
-35 1 -69 -19 -39 -22 -75 -7 -75 5 0 7 6 4 14 -3 8 -1 23 6 33 9 15 10 10 7
-24 -3 -24 -1 -45 3 -48 5 -3 9 130 10 295 0 165 -2 300 -3 300 -2 0 -12 -18
-22 -40z m12 -52 c-2 -13 -4 -5 -4 17 -1 22 1 32 4 23 2 -10 2 -28 0 -40z"/>
<path d="M411 1750 c0 -33 1 -34 11 -12 8 17 8 26 0 34 -9 9 -12 4 -11 -22z"/>
<path d="M416 1688 c-5 -16 -5 -36 0 -45 7 -16 8 -15 11 5 3 12 3 32 0 45 -3
21 -4 20 -11 -5z"/>
<path d="M390 1574 l1 -69 19 35 c25 45 25 63 0 85 -20 18 -20 17 -20 -51z
m17 -6 c-2 -13 -4 -5 -4 17 -1 22 1 32 4 23 2 -10 2 -28 0 -40z"/>
<path d="M393 1478 c1 -15 5 -24 10 -21 4 2 7 -7 7 -21 0 -14 -4 -26 -10 -26
-5 0 -10 -25 -10 -55 0 -30 4 -55 9 -55 15 0 23 18 11 25 -15 9 -12 52 6 86
14 28 14 32 -4 61 -20 31 -20 31 -19 6z"/>
<path d="M2461 1978 c1 -18 2 -19 6 -5 2 9 8 15 13 12 4 -3 6 -14 3 -25 -3
-11 -9 -17 -14 -14 -5 3 -9 -9 -9 -26 0 -20 4 -29 11 -25 6 4 8 13 5 21 -3 7
0 16 6 20 6 4 8 3 5 -3 -4 -6 0 -16 8 -23 17 -14 20 -40 4 -40 -5 0 -8 4 -4 9
3 5 1 12 -5 16 -12 8 -13 -6 -1 -38 10 -25 -2 -57 -16 -44 -4 5 -1 12 6 16 9
6 10 11 2 15 -6 4 -9 11 -6 16 3 5 1 11 -5 15 -7 4 -10 -138 -10 -433 0 -388
2 -441 16 -446 9 -4 13 -2 8 5 -4 8 1 9 15 4 l21 -6 0 307 c0 169 -2 305 -5
302 -3 -2 -5 -32 -6 -66 -1 -34 -5 -62 -9 -62 -12 0 -4 144 9 148 14 5 14 49
0 54 -6 2 -11 16 -11 32 0 15 -6 30 -13 32 -17 7 -13 37 8 58 15 15 17 15 17
2 0 -9 -4 -16 -10 -16 -5 0 -10 -7 -10 -16 0 -14 2 -14 15 0 17 16 21 66 5 66
-5 0 -10 5 -10 11 0 6 6 9 14 6 9 -4 13 0 11 11 -2 9 -4 25 -4 35 -1 9 -7 16
-13 15 -9 -2 -13 11 -13 40 1 34 -3 42 -17 42 -12 0 -18 -7 -17 -22z m25 -260
c-2 -13 4 -33 12 -46 12 -18 12 -25 2 -37 -18 -21 -21 -155 -5 -162 15 -5 14
-28 -1 -40 -5 -4 -6 -4 -1 1 4 5 1 19 -6 30 -19 28 -17 157 2 180 12 14 12 16
0 11 -11 -4 -14 6 -16 40 -1 25 3 45 8 45 5 0 7 -10 5 -22z m-1 -278 c-3 -4 2
-13 11 -20 11 -10 12 -15 3 -21 -18 -11 -20 -76 -3 -90 12 -10 12 -15 -1 -35
-14 -21 -14 -23 0 -17 14 5 16 -10 13 -116 -1 -95 -5 -120 -15 -117 -7 3 -13
0 -13 -6 0 -6 -3 -8 -6 -5 -4 4 -2 13 5 21 7 8 8 16 4 18 -4 3 -2 3 6 1 11 -3
10 2 -3 16 -16 18 -17 23 -5 37 15 18 21 76 7 68 -5 -3 -5 -10 -2 -16 4 -7 2
-8 -4 -4 -17 10 -15 33 2 39 8 3 14 15 13 26 0 11 -5 18 -9 15 -4 -3 -5 -11
-1 -19 3 -8 1 -15 -5 -15 -6 0 -10 51 -9 130 0 71 4 127 9 124 4 -3 6 -9 3
-14z m23 -96 c1 -20 -2 -34 -6 -30 -8 9 -10 76 -1 71 3 -2 6 -21 7 -41z m-18
-214 c0 -5 -5 -10 -11 -10 -5 0 -7 5 -4 10 3 6 8 10 11 10 2 0 4 -4 4 -10z"/>
<path d="M2508 1982 c-3 -9 -1 -26 3 -37 6 -15 8 -11 8 18 1 40 -4 48 -11 19z"/>
<path d="M2513 1730 c0 -25 2 -35 4 -22 2 12 2 32 0 45 -2 12 -4 2 -4 -23z"/>
<path d="M2708 1258 c8 -8 8 -15 1 -24 -6 -8 -7 -14 0 -18 5 -4 12 -2 16 4 9
14 -4 50 -18 50 -8 0 -8 -3 1 -12z"/>
<path d="M2678 1203 c3 -17 -1 -29 -12 -35 -14 -8 -15 -13 -5 -24 6 -8 17 -14
24 -14 17 0 28 31 15 44 -5 5 -10 18 -10 27 0 10 -4 20 -9 23 -4 3 -6 -6 -3
-21z"/>
<path d="M2681 1104 c0 -11 3 -14 6 -6 3 7 2 16 -1 19 -3 4 -6 -2 -5 -13z"/>
<path d="M423 1195 c-8 -22 6 -33 17 -15 13 20 12 30 0 30 -6 0 -13 -7 -17
-15z"/>
<path d="M388 688 c5 -5 16 -8 23 -6 8 3 3 7 -10 11 -17 4 -21 3 -13 -5z"/>
<path d="M1175 604 c0 -13 6 -24 13 -24 6 0 12 6 12 14 0 7 -6 18 -12 24 -10
8 -13 4 -13 -14z"/>
<path d="M2515 590 c-3 -5 -3 -16 1 -22 4 -7 -2 -4 -14 6 -12 11 -22 14 -22 8
0 -6 9 -18 21 -26 12 -8 19 -19 15 -24 -3 -5 5 -8 17 -7 12 1 37 -12 56 -29
l34 -31 -22 32 c-12 18 -26 35 -31 38 -6 4 -10 11 -10 16 0 17 18 1 70 -62 57
-69 67 -70 15 -2 -33 43 -106 113 -118 113 -3 0 -9 -4 -12 -10z m35 -30 c-8
-5 -9 -13 -4 -21 6 -11 3 -10 -10 1 -12 9 -14 16 -7 18 9 3 8 8 -1 20 -12 14
-10 14 11 3 17 -10 20 -15 11 -21z"/>
<path d="M561 641 c-7 -12 -10 -21 -9 -22 2 0 11 -2 21 -4 28 -5 33 -15 8 -15
-12 0 -19 -4 -16 -10 4 -6 72 -10 171 -10 l165 0 -21 31 c-22 29 -23 30 -42
12 -20 -18 -20 -18 8 -24 16 -3 -9 -6 -55 -6 -78 0 -87 3 -106 25 l-22 25 -7
-26 c-9 -37 -28 -34 -58 9 -25 35 -27 35 -37 15z m124 -41 c3 -5 -1 -10 -10
-10 -9 0 -13 5 -10 10 3 6 8 10 10 10 2 0 7 -4 10 -10z"/>
<path d="M590 652 c0 -5 11 -19 24 -31 21 -19 24 -20 30 -6 9 24 8 28 -7 22
-8 -3 -20 -1 -28 4 -10 7 -4 9 21 8 20 -2 46 -13 62 -27 l26 -24 12 23 c10 18
10 21 -1 17 -8 -3 -23 -2 -34 2 -12 5 9 8 52 8 40 0 70 -4 68 -8 -3 -5 -15 -6
-28 -2 -20 5 -21 4 -7 -14 8 -10 15 -20 15 -21 1 -2 14 11 30 27 l29 30 -132
0 c-73 0 -132 -4 -132 -8z"/>
<path d="M882 630 l22 -31 18 23 c25 33 23 38 -22 38 l-41 0 23 -30z m33 10
c-3 -5 -12 -7 -20 -3 -21 7 -19 13 6 13 11 0 18 -4 14 -10z"/>
<path d="M959 641 c20 -37 37 -43 54 -18 10 16 26 24 52 25 24 2 34 -1 30 -8
-4 -6 -16 -8 -26 -5 -18 6 -19 5 -7 -14 12 -20 13 -20 35 7 12 15 22 22 23 16
0 -6 -7 -17 -15 -24 -22 -19 -18 -40 8 -39 20 0 20 1 3 8 -18 7 -18 8 -2 14
11 4 16 15 14 29 -3 22 -8 23 -91 25 -81 2 -87 1 -78 -16z m46 -1 c-3 -5 -12
-7 -20 -3 -21 7 -19 13 6 13 11 0 18 -4 14 -10z"/>
<path d="M746 625 c-9 -23 -8 -24 13 -22 16 1 18 4 8 17 -6 8 -12 16 -13 18
-1 2 -4 -4 -8 -13z"/>
<path d="M928 609 c-9 -16 -13 -29 -9 -29 5 0 11 7 15 15 3 8 12 12 21 9 18
-7 20 9 2 24 -9 8 -17 3 -29 -19z"/>
<path d="M1025 620 c-9 -15 -1 -23 21 -18 15 3 16 4 1 16 -11 9 -17 10 -22 2z"/>
<path d="M955 589 c-17 -6 -16 -8 10 -10 63 -4 97 -4 107 2 6 4 -6 8 -26 11
-21 2 -40 0 -42 -4 -3 -5 -11 -5 -17 0 -7 5 -21 6 -32 1z"/>
<path d="M1523 634 c-7 -19 21 -51 31 -35 4 6 0 11 -8 11 -19 0 -21 11 -4 28
9 9 9 12 0 12 -7 0 -15 -7 -19 -16z"/>
<path d="M1603 623 c0 -16 2 -22 4 -16 4 10 9 10 25 -2 17 -11 26 -12 42 -3
32 17 63 18 63 2 0 -9 -8 -12 -23 -10 -12 3 -30 -1 -39 -8 -13 -9 36 -11 232
-8 257 4 266 6 261 47 -3 17 -11 20 -68 22 -51 2 -60 0 -41 -8 13 -5 41 -7 63
-4 39 6 47 -1 26 -24 -11 -11 -10 -12 1 -6 9 5 12 4 8 -2 -9 -14 -51 -8 -79
11 -12 9 -27 16 -33 16 -5 0 -2 -5 9 -11 15 -9 16 -13 5 -20 -8 -5 -18 -9 -24
-9 -5 0 -3 5 5 10 11 7 6 9 -18 7 -17 -2 -35 -7 -39 -10 -13 -14 -50 -6 -68
13 -22 25 -58 26 -76 3 -13 -16 -12 -17 3 -4 11 8 28 11 43 7 45 -11 26 -21
-42 -21 -45 0 -68 4 -68 12 0 6 -3 15 -7 19 -4 3 -5 -3 -3 -15 3 -14 0 -21 -8
-18 -7 2 -12 10 -12 18 0 9 -9 13 -23 12 -13 -2 -21 1 -18 5 3 5 56 8 118 8
93 -1 113 -4 113 -16 0 -24 28 -22 65 5 l34 25 -216 0 -215 0 0 -27z m57 5 c0
-6 6 -6 15 2 10 8 15 9 15 2 0 -18 -34 -31 -53 -21 -23 13 -22 24 3 26 11 1
20 -3 20 -9z m318 -5 c-14 -17 -35 -16 -35 1 0 8 10 13 23 12 17 -1 20 -4 12
-13z"/>
<path d="M1800 614 c-17 -9 -20 -14 -9 -14 9 0 22 7 29 15 15 18 13 18 -20 -1z"/>
<path d="M2005 620 c-3 -6 1 -7 9 -4 18 7 21 14 7 14 -6 0 -13 -4 -16 -10z"/>
<path d="M1615 580 c3 -5 10 -10 16 -10 5 0 9 5 9 10 0 6 -7 10 -16 10 -8 0
-12 -4 -9 -10z"/>
<path d="M1123 311 c4 -29 17 -39 17 -13 0 11 -5 24 -10 27 -6 4 -9 -2 -7 -14z"/>
<path d="M1070 301 c0 -5 -8 -12 -17 -14 -15 -4 -15 -5 -2 -6 9 0 22 6 29 14
9 10 9 15 1 15 -6 0 -11 -4 -11 -9z"/>
<path d="M956 265 c-10 -8 -23 -12 -27 -9 -5 3 -9 0 -9 -5 0 -6 6 -11 13 -11
15 1 52 28 46 34 -2 2 -13 -2 -23 -9z"/>
<path d="M430 158 c0 -19 2 -20 10 -8 13 19 13 30 0 30 -5 0 -10 -10 -10 -22z"/>
<path d="M2740 3785 c1 -26 2 -28 11 -12 8 14 8 22 0 30 -8 8 -11 3 -11 -18z"/>
<path d="M2323 3760 c-5 -19 -18 -24 -53 -21 -8 1 -4 -5 10 -13 14 -8 28 -12
32 -10 5 3 8 -5 8 -16 0 -16 4 -20 16 -16 9 3 17 6 20 6 2 0 1 7 -2 15 -7 18
26 21 44 3 9 -9 15 -9 23 -1 9 9 18 8 38 -4 19 -11 16 -7 -9 15 -26 23 -39 28
-52 21 -33 -18 -51 -11 -44 16 5 19 2 25 -10 25 -9 0 -18 -9 -21 -20z"/>
<path d="M2500 3761 c-5 -11 -10 -31 -10 -45 0 -15 -8 -30 -20 -36 -25 -13
-27 -35 -2 -25 9 4 22 9 29 12 22 9 35 -34 23 -77 -9 -34 -8 -44 7 -65 10 -13
21 -25 24 -25 3 0 13 16 22 35 13 27 30 41 72 59 36 16 61 36 74 57 26 43 16
57 -18 25 -32 -31 -77 -36 -66 -8 16 38 15 54 -1 18 -10 -22 -31 -52 -48 -68
-24 -22 -28 -30 -17 -37 9 -6 10 -11 2 -15 -6 -4 -11 -1 -11 6 0 9 -3 9 -10
-2 -5 -8 -10 -19 -10 -25 0 -5 4 -4 9 4 5 8 11 9 15 3 6 -11 -23 -26 -32 -17
-4 3 1 26 11 51 9 24 14 51 11 59 -7 17 11 21 21 5 4 -6 11 -8 16 -4 14 9 -20
44 -42 44 -10 0 -25 13 -34 30 -14 28 -14 31 1 37 10 4 22 0 29 -10 13 -18 35
-23 35 -9 0 14 -35 42 -53 42 -9 0 -21 -9 -27 -19z"/>
<path d="M375 3760 c3 -5 14 -10 23 -10 15 0 15 2 2 10 -20 13 -33 13 -25 0z"/>
<path d="M2670 3755 c7 -8 18 -15 24 -15 7 0 18 -6 24 -12 7 -7 26 -13 42 -14
27 -2 29 1 23 25 -8 35 -13 39 -13 11 0 -19 -2 -20 -15 -10 -8 7 -21 10 -29 7
-8 -3 -22 1 -33 8 -24 19 -39 19 -23 0z"/>
<path d="M750 3740 c-9 -6 -10 -10 -3 -10 6 0 15 5 18 10 8 12 4 12 -15 0z"/>
<path d="M508 3733 c7 -3 16 -2 19 1 4 3 -2 6 -13 5 -11 0 -14 -3 -6 -6z"/>
<path d="M2215 3650 c-3 -5 -1 -10 4 -10 6 0 11 5 11 10 0 6 -2 10 -4 10 -3 0
-8 -4 -11 -10z"/>
<path d="M2878 3644 c12 -8 20 -20 17 -25 -4 -5 -1 -9 4 -9 18 0 12 29 -8 40
-30 15 -38 12 -13 -6z"/>
<path d="M210 3630 c8 -5 22 -10 30 -10 13 0 13 1 0 10 -8 5 -22 10 -30 10
-13 0 -13 -1 0 -10z"/>
<path d="M757 3581 c-4 -17 -3 -21 5 -13 5 5 8 16 6 23 -3 8 -7 3 -11 -10z"/>
<path d="M2060 3582 c0 -15 25 -21 41 -11 9 5 9 9 2 9 -6 0 -18 3 -27 6 -9 3
-16 2 -16 -4z"/>
<path d="M850 3555 c0 -8 4 -15 10 -15 5 0 7 7 4 15 -4 8 -8 15 -10 15 -2 0
-4 -7 -4 -15z"/>
<path d="M885 3550 c-8 -14 3 -30 21 -30 8 0 14 9 14 20 0 21 -24 28 -35 10z"/>
<path d="M343 3492 c4 -32 2 -45 -9 -49 -18 -7 0 -33 23 -33 12 0 14 7 8 28
-4 15 -8 39 -9 55 -2 15 -6 30 -11 35 -4 4 -5 -12 -2 -36z"/>
<path d="M210 3490 c0 -5 9 -10 20 -10 11 0 20 5 20 10 0 6 -9 10 -20 10 -11
0 -20 -4 -20 -10z"/>
<path d="M2486 3487 c3 -10 9 -15 12 -12 3 3 0 11 -7 18 -10 9 -11 8 -5 -6z"/>
<path d="M2237 3483 c-4 -3 -7 -11 -7 -17 0 -6 5 -5 12 2 6 6 9 14 7 17 -3 3
-9 2 -12 -2z"/>
<path d="M670 3465 c-7 -9 -8 -15 -2 -15 5 0 12 7 16 15 3 8 4 15 2 15 -2 0
-9 -7 -16 -15z"/>
<path d="M2764 3391 c2 -13 0 -34 -5 -48 -9 -24 7 -90 31 -132 13 -23 12 -7
-2 24 -9 20 -8 31 2 50 7 14 10 28 7 32 -4 3 -2 12 5 20 6 7 8 16 4 20 -3 3
-6 1 -6 -5 0 -7 -7 -12 -16 -12 -11 0 -14 6 -9 20 3 11 1 28 -5 37 -10 16 -11
15 -6 -6z"/>
<path d="M200 3300 c0 -5 5 -10 10 -10 6 0 11 -15 11 -32 1 -19 3 -25 6 -15 6
24 -5 67 -17 67 -6 0 -10 -4 -10 -10z"/>
<path d="M2597 3265 c3 -21 1 -41 -7 -49 -6 -9 -8 -21 -4 -27 4 -7 8 -24 9
-39 2 -15 8 -36 14 -46 11 -17 12 -16 6 6 -11 40 -11 55 0 60 5 3 13 -15 17
-39 4 -25 12 -49 17 -54 7 -7 4 -15 -7 -24 -16 -14 -16 -14 1 -9 25 8 47 -3
47 -25 0 -18 20 -26 33 -13 3 3 27 7 54 8 26 2 40 1 31 -1 -17 -4 -26 -23 -10
-23 14 1 46 30 32 30 -9 0 -7 5 6 15 17 13 16 13 -14 2 -30 -11 -35 -10 -48 7
-7 11 -17 16 -21 13 -3 -4 2 -14 13 -22 19 -14 19 -14 -2 -15 -12 0 -27 7 -34
15 -7 8 -20 14 -28 13 -19 -4 -62 57 -62 88 0 22 23 54 39 54 5 0 14 -6 21
-14 9 -12 8 -17 -9 -27 -15 -10 -17 -17 -10 -32 8 -15 13 -16 25 -6 12 10 20
7 42 -12 15 -13 30 -28 34 -34 12 -16 9 3 -4 28 -26 52 -27 56 -14 69 14 15
10 38 -6 38 -6 0 -17 -8 -24 -17 -13 -17 -15 -17 -25 0 -13 22 -37 22 -61 0
-17 -15 -18 -15 -18 5 0 11 -4 24 -10 27 -5 3 -10 21 -10 40 0 19 -4 36 -9 40
-6 3 -7 -9 -4 -30z"/>
<path d="M94 3218 c1 -26 5 -51 9 -54 10 -10 7 56 -2 81 -6 14 -8 5 -7 -27z"/>
<path d="M312 3204 c-2 -21 -41 -78 -42 -61 0 5 -7 2 -15 -7 -17 -16 -10 -46
10 -46 10 0 13 -11 10 -37 l-5 -38 9 33 c11 41 19 50 27 28 5 -13 9 -14 20 -5
16 13 19 49 5 49 -6 0 -12 24 -14 53 -2 28 -4 42 -5 31z m3 -123 c-3 -2 -5 1
-5 7 0 7 -8 12 -17 13 -11 0 -13 3 -5 6 6 2 12 12 13 21 0 10 5 4 10 -12 4
-17 6 -32 4 -35z m-45 29 c0 -5 -2 -10 -4 -10 -3 0 -8 5 -11 10 -3 6 -1 10 4
10 6 0 11 -4 11 -10z"/>
<path d="M61 3145 c7 -16 19 -39 26 -49 6 -10 9 -32 6 -47 -6 -33 6 -37 50
-16 35 16 36 47 2 47 -14 0 -25 3 -25 8 -1 4 -17 25 -36 47 -33 37 -35 38 -23
10z"/>
<path d="M2825 3110 c3 -5 11 -10 16 -10 6 0 7 5 4 10 -3 6 -11 10 -16 10 -6
0 -7 -4 -4 -10z"/>
<path d="M2648 3003 c-8 -10 -18 -26 -22 -37 -6 -18 -7 -18 -26 -1 -11 10 -20
13 -20 8 0 -6 6 -13 13 -16 9 -3 12 -16 9 -35 -4 -28 -1 -31 31 -37 42 -8 57
-1 57 25 0 10 8 24 18 30 15 10 14 10 -5 5 -15 -4 -29 1 -44 16 l-22 22 23 19
c12 10 18 18 13 18 -6 0 -17 -8 -25 -17z m12 -74 c0 -11 5 -17 10 -14 11 7 14
-8 4 -18 -9 -9 -36 21 -29 33 3 5 1 10 -5 10 -6 0 -8 5 -5 10 9 15 25 2 25
-21z m-30 -19 c0 -5 -5 -10 -11 -10 -5 0 -7 5 -4 10 3 6 8 10 11 10 2 0 4 -4
4 -10z"/>
<path d="M200 2942 c0 -5 7 -15 15 -22 8 -7 15 -8 15 -2 0 5 -7 15 -15 22 -8
7 -15 8 -15 2z"/>
<path d="M2765 2930 c3 -5 18 -10 32 -10 32 0 28 5 -10 14 -19 4 -26 3 -22 -4z"/>
<path d="M2661 2817 c-1 -10 -17 -27 -37 -39 -30 -18 -35 -25 -29 -47 9 -36
22 -49 51 -53 l24 -3 -28 -60 c-40 -85 -72 -248 -51 -261 14 -8 11 -56 -5 -86
-8 -16 -10 -28 -5 -28 5 0 11 6 13 13 15 47 17 51 25 38 11 -17 3 -51 -17 -73
-14 -16 -13 -18 1 -18 10 0 18 12 23 35 l6 35 32 -25 c57 -45 66 -55 66 -77 0
-12 -7 -30 -17 -40 -17 -19 -5 -26 13 -8 12 12 44 3 44 -11 0 -5 9 -9 20 -9
18 0 20 4 14 43 -8 52 -14 60 -14 19 0 -44 -26 -42 -45 4 -8 20 -15 37 -15 38
0 0 24 1 53 1 44 0 53 -3 62 -22 5 -13 13 -23 17 -23 15 0 8 20 -13 41 l-21
21 23 24 c24 26 55 32 62 12 2 -7 8 -9 13 -5 10 9 -24 39 -36 32 -3 -2 -5 31
-4 73 2 49 6 76 13 74 12 -2 15 11 4 21 -3 4 -12 2 -20 -5 -10 -8 -17 -8 -25
0 -7 7 -27 12 -45 12 -71 0 -106 82 -52 122 22 17 31 18 50 8 22 -10 22 -10 6
3 -12 10 -14 17 -7 22 5 3 7 11 4 17 -5 8 -11 6 -18 -3 -6 -8 -23 -22 -37 -31
-24 -15 -26 -15 -37 3 -7 10 -20 19 -30 19 -13 0 -11 -5 10 -23 21 -17 26 -28
21 -49 -3 -18 -12 -28 -24 -28 -10 0 -20 -4 -23 -9 -4 -5 3 -7 14 -4 19 5 50
-11 50 -27 0 -4 -10 -10 -22 -13 -12 -4 -19 -9 -16 -12 3 -4 15 -2 25 3 12 7
25 7 34 1 7 -5 28 -9 45 -9 37 0 59 -17 69 -50 7 -24 7 -24 -12 -7 -23 20 -39
22 -49 5 -5 -8 -2 -9 10 -5 10 4 24 -1 37 -14 16 -16 18 -27 13 -57 -9 -52
-14 -57 -31 -32 -8 12 -21 19 -28 16 -22 -8 -37 16 -18 29 19 14 8 39 -13 31
-8 -3 -14 -1 -14 4 0 6 5 10 10 10 6 0 1 9 -10 20 -26 26 -50 26 -50 -1 0 -19
-2 -20 -17 -8 -14 12 -15 12 -9 0 5 -8 4 -16 -4 -21 -15 -9 -6 -40 11 -40 9 0
8 4 0 14 -10 11 -8 16 8 21 12 3 21 13 21 22 0 22 25 10 28 -15 2 -12 11 -22
19 -22 26 0 11 -8 -26 -13 -19 -3 -41 -13 -50 -23 -15 -15 -15 -16 1 -11 10 4
18 -1 21 -14 7 -25 34 -24 42 2 5 15 10 18 18 10 6 -6 21 -11 33 -11 25 0 39
-27 24 -45 -51 -62 -168 -25 -216 66 -12 25 -13 33 -3 46 11 12 10 17 -4 28
-11 8 -17 26 -17 55 l0 44 20 -22 c23 -25 35 -27 46 -10 5 7 2 9 -8 5 -19 -7
-50 24 -44 44 2 8 7 27 11 44 6 25 8 27 16 12 6 -9 17 -17 26 -17 11 0 10 4
-7 18 -21 17 -21 18 -5 60 18 44 29 52 39 27 3 -8 13 -14 23 -14 17 1 17 2 1
6 -23 6 -34 49 -17 69 11 14 13 14 21 0 10 -18 58 -22 58 -5 0 6 -8 8 -19 4
-10 -3 -23 1 -31 9 -10 13 -8 22 11 53 16 26 18 34 7 25 -10 -8 -29 -34 -43
-58 -21 -36 -31 -44 -55 -44 -35 0 -45 13 -24 30 8 7 12 20 9 28 -3 8 4 25 16
38 12 12 19 29 16 36 -4 8 -6 7 -6 -5z m109 -495 c0 -5 -6 -17 -14 -27 -13
-18 -14 -18 -25 3 -8 14 -8 22 -1 22 5 0 10 -8 10 -17 0 -15 2 -16 9 -3 6 8 7
18 5 22 -3 4 0 8 5 8 6 0 11 -4 11 -8z"/>
<path d="M2882 2804 c-28 -11 -32 -17 -26 -39 4 -15 2 -25 -5 -25 -6 0 -11 -5
-11 -10 0 -6 8 -5 20 2 28 18 34 5 19 -39 l-12 -38 -14 30 -14 30 6 -28 c3
-16 1 -35 -6 -43 -6 -7 -8 -21 -5 -31 10 -24 25 -5 47 58 21 60 42 86 73 92
21 4 20 4 -1 6 -16 1 -23 7 -23 20 0 28 -10 31 -48 15z m32 -26 c-5 -7 -9 -16
-9 -20 0 -15 -15 -20 -15 -5 0 10 -7 17 -16 17 -8 0 -12 5 -9 10 4 6 15 8 26
5 12 -4 19 -2 19 6 0 7 3 10 6 6 3 -3 2 -12 -2 -19z"/>
<path d="M2771 2780 c-1 -17 17 -40 31 -40 4 0 8 5 8 10 0 6 -6 10 -14 10 -8
0 -17 8 -19 18 -4 13 -5 13 -6 2z"/>
<path d="M101 2723 c-6 -13 -7 -23 0 -30 6 -6 2 -19 -13 -38 -12 -16 -21 -39
-20 -50 3 -24 -21 -50 -38 -40 -5 3 -10 1 -10 -4 0 -6 11 -11 25 -11 20 0 25
-5 26 -27 1 -26 2 -25 10 7 4 20 4 50 -1 68 -8 29 -6 34 13 41 54 20 53 19 35
20 -15 1 -15 5 -6 32 13 37 -4 63 -21 32z"/>
<path d="M2586 2683 c-3 -3 -6 -15 -6 -25 0 -11 -4 -16 -10 -13 -5 3 -10 1
-10 -4 0 -6 5 -11 10 -11 6 0 10 -7 10 -16 0 -9 6 -14 13 -11 6 2 11 10 9 16
-1 6 9 16 23 21 30 11 33 20 5 13 -14 -4 -20 0 -20 10 0 18 -14 30 -24 20z"/>
<path d="M2812 2670 c0 -14 2 -19 5 -12 2 6 2 18 0 25 -3 6 -5 1 -5 -13z"/>
<path d="M2761 2663 c0 -4 4 -17 9 -28 8 -19 9 -19 9 2 1 12 -3 25 -9 28 -5 3
-10 3 -9 -2z"/>
<path d="M2890 2630 c-13 -8 -13 -10 2 -10 9 0 20 5 23 10 8 13 -5 13 -25 0z"/>
<path d="M2838 2569 c-16 -12 -28 -17 -28 -12 0 4 -4 2 -9 -6 -12 -18 8 -39
31 -33 10 2 18 0 18 -4 0 -5 9 -15 19 -21 19 -12 19 -11 9 18 -8 25 -8 33 3
40 12 7 12 11 -1 23 -13 13 -18 12 -42 -5z"/>
<path d="M106 2572 c-3 -5 1 -9 9 -9 8 0 15 4 15 9 0 4 -4 8 -9 8 -6 0 -12 -4
-15 -8z"/>
<path d="M2745 2550 c-3 -5 1 -10 10 -10 9 0 13 5 10 10 -3 6 -8 10 -10 10 -2
0 -7 -4 -10 -10z"/>
<path d="M147 2530 c3 -11 7 -20 9 -20 2 0 4 9 4 20 0 11 -4 20 -9 20 -5 0 -7
-9 -4 -20z"/>
<path d="M197 2445 c-6 -13 -1 -45 10 -75 4 -8 5 -21 4 -27 -2 -14 9 -16 32
-7 9 3 13 13 10 25 -3 12 -11 18 -19 15 -7 -3 -16 0 -20 6 -4 6 -3 8 4 4 5 -3
13 0 15 6 4 10 8 10 15 -1 8 -11 14 -12 24 -4 7 6 22 13 33 15 11 2 -1 7 -29
12 -36 6 -51 4 -57 -6 -6 -9 -9 -9 -9 -1 0 6 5 15 10 18 14 9 12 22 -4 28 -8
3 -17 0 -19 -8z"/>
<path d="M148 2387 c16 -18 3 -98 -17 -104 -44 -13 -62 -24 -55 -34 5 -8 8 -8
14 0 9 16 58 24 97 16 l31 -6 -24 -24 c-13 -13 -24 -31 -24 -40 0 -11 -11 -15
-42 -15 -54 0 -43 -11 15 -14 36 -2 55 -11 96 -45 28 -24 51 -49 51 -58 0 -8
4 -11 10 -8 15 9 -15 49 -60 80 -22 15 -40 32 -40 36 0 5 26 6 58 3 33 -4 54
-3 49 2 -5 5 -21 10 -35 11 -15 1 -38 4 -52 6 -14 2 -29 5 -34 6 -12 1 32 49
58 63 16 8 18 7 13 -6 -4 -9 -2 -16 4 -16 6 0 7 -4 4 -10 -3 -6 4 -10 16 -10
21 0 59 -34 59 -53 0 -6 3 -8 6 -5 3 4 1 16 -6 27 -6 12 -7 21 -1 21 5 0 3 14
-5 30 -18 35 -24 39 -17 9 5 -17 2 -20 -18 -17 -36 5 -36 35 0 43 36 8 73 -9
65 -30 -4 -8 -1 -15 6 -15 6 0 8 5 5 10 -3 6 -1 10 5 10 18 0 -13 26 -40 35
-35 11 -50 24 -43 41 3 8 0 14 -6 14 -14 0 -15 -27 -1 -35 20 -12 9 -23 -29
-29 -21 -3 -53 -3 -70 0 -27 6 -31 11 -31 37 0 17 7 39 17 49 15 17 15 18 0
18 -10 0 -17 5 -17 10 0 6 -5 10 -11 10 -8 0 -8 -4 -1 -13z"/>
<path d="M2635 2350 c-19 -8 -19 -9 3 -9 12 -1 22 4 22 9 0 6 -1 10 -2 9 -2 0
-12 -4 -23 -9z"/>
<path d="M2710 2350 c0 -5 5 -10 10 -10 6 0 10 5 10 10 0 6 -4 10 -10 10 -5 0
-10 -4 -10 -10z"/>
<path d="M2560 2330 c0 -5 4 -10 9 -10 6 0 13 5 16 10 3 6 -1 10 -9 10 -9 0
-16 -4 -16 -10z"/>
<path d="M440 2299 c0 -5 5 -7 10 -4 6 3 10 8 10 11 0 2 -4 4 -10 4 -5 0 -10
-5 -10 -11z"/>
<path d="M388 2273 c7 -3 16 -2 19 1 4 3 -2 6 -13 5 -11 0 -14 -3 -6 -6z"/>
<path d="M422 2260 c0 -14 2 -19 5 -12 2 6 2 18 0 25 -3 6 -5 1 -5 -13z"/>
<path d="M2934 2223 c2 -13 1 -25 -4 -28 -18 -11 -20 -58 -4 -111 9 -30 18
-53 21 -51 2 3 0 22 -6 43 -7 24 -7 42 -1 48 6 6 5 16 -1 28 -6 11 -6 25 -1
36 6 10 6 25 1 37 -9 18 -9 18 -5 -2z"/>
<path d="M41 2212 c-1 -13 -10 -26 -23 -31 -21 -8 -21 -8 3 -14 30 -8 37 1 28
38 -5 24 -7 26 -8 7z"/>
<path d="M2662 2168 c-7 -7 -12 -19 -12 -29 0 -10 -13 -20 -32 -25 -48 -14
-48 -34 1 -34 28 0 41 -4 41 -14 0 -18 27 -29 33 -13 2 7 0 28 -4 47 -5 19 -6
42 -3 52 6 21 -9 31 -24 16z m13 -68 c3 -5 1 -10 -4 -10 -6 0 -11 5 -11 10 0
6 2 10 4 10 3 0 8 -4 11 -10z"/>
<path d="M41 2134 c0 -11 3 -14 6 -6 3 7 2 16 -1 19 -3 4 -6 -2 -5 -13z"/>
<path d="M170 2138 c0 -21 -40 -35 -50 -18 -5 8 -10 9 -14 2 -8 -14 28 -25 54
-17 15 5 20 2 20 -14 0 -11 5 -23 10 -26 6 -3 10 -14 10 -24 0 -13 -8 -18 -30
-19 -23 0 -34 7 -50 34 -12 19 -22 34 -23 34 -1 0 -3 -19 -5 -42 -1 -23 -7
-45 -12 -48 -6 -4 -9 -17 -8 -31 2 -25 3 -25 41 -12 30 10 42 11 53 2 19 -16
2 -36 -37 -44 -17 -4 -33 -13 -36 -21 -3 -8 -17 -15 -32 -15 -20 -1 -22 -2 -6
-6 11 -3 28 -12 38 -21 9 -8 20 -12 24 -9 3 4 15 -1 25 -10 18 -16 18 -16 12
0 -3 10 -1 24 6 32 7 9 9 19 5 23 -4 4 -10 1 -12 -5 -3 -7 -11 -13 -19 -13 -8
0 -14 -5 -14 -11 0 -5 -4 -8 -9 -5 -8 5 -8 14 -2 45 1 2 7 -1 14 -7 10 -8 21
-3 44 23 l31 33 11 -24 c6 -13 15 -24 21 -24 14 0 13 9 -5 26 -8 9 -15 26 -15
39 0 13 -3 30 -6 39 -12 32 12 14 44 -32 33 -49 39 -82 23 -126 -8 -19 -15
-23 -33 -19 -13 3 -32 13 -42 22 -16 13 -18 14 -14 1 2 -8 19 -19 36 -25 38
-11 37 -22 -7 -52 -22 -15 -38 -19 -49 -14 -9 5 -30 15 -47 22 -16 8 -33 18
-37 24 -5 6 -8 5 -8 -3 0 -8 8 -16 19 -19 10 -2 24 -16 30 -29 6 -13 15 -24
21 -24 5 0 18 -17 29 -37 11 -21 20 -34 21 -30 0 4 -7 22 -16 39 -16 31 -9 47
22 48 6 0 23 12 37 26 25 25 26 25 37 5 6 -12 18 -21 26 -21 12 0 10 5 -7 19
-22 18 -23 22 -11 53 6 19 12 43 12 53 0 15 3 16 12 7 15 -15 38 -16 38 -2 0
5 -3 9 -7 9 -23 -4 -35 5 -53 41 l-20 40 20 0 c11 0 20 5 20 11 0 6 -9 8 -21
4 -26 -8 -55 17 -75 64 -18 43 -18 44 5 31 24 -12 31 -13 31 -1 0 5 -10 11
-22 13 -12 2 -28 14 -35 28 -9 17 -13 20 -13 8z m-49 -121 c-1 -12 -15 -9 -19
4 -3 6 1 10 8 8 6 -3 11 -8 11 -12z m71 -49 c-6 -6 -16 -7 -23 -3 -9 6 -7 12
7 22 21 15 34 -1 16 -19z"/>
<path d="M2787 2069 c4 -13 8 -18 11 -10 2 7 -1 18 -6 23 -8 8 -9 4 -5 -13z"/>
<path d="M2587 2030 c3 -11 0 -27 -7 -35 -14 -17 -15 -16 27 -20 18 -1 30 1
27 6 -3 5 -12 9 -20 9 -9 0 -14 11 -14 30 0 17 -4 30 -9 30 -5 0 -7 -9 -4 -20z"/>
<path d="M2591 1944 c0 -11 3 -14 6 -6 3 7 2 16 -1 19 -3 4 -6 -2 -5 -13z"/>
<path d="M2690 1843 c1 -10 7 -29 15 -43 14 -25 14 -24 11 14 -2 39 -26 66
-26 29z"/>
<path d="M2731 1753 c0 -11 3 -13 6 -5 2 6 9 10 14 6 5 -3 9 0 9 5 0 6 -7 11
-15 11 -8 0 -15 -8 -14 -17z"/>
<path d="M2774 1755 c-4 -8 -4 -22 0 -30 3 -8 1 -15 -4 -15 -6 0 -10 8 -10 18
0 11 -5 8 -15 -12 -18 -35 -18 -36 0 -36 8 0 12 6 9 13 -3 8 3 13 16 13 13 0
19 -5 16 -13 -3 -8 2 -13 14 -13 26 0 26 16 0 30 -11 6 -20 15 -20 21 0 6 4 8
9 5 7 -5 21 15 21 30 0 11 -31 2 -36 -11z"/>
<path d="M115 1700 c-3 -11 -4 -24 -1 -29 9 -15 -15 -71 -35 -82 -20 -10 -26
-29 -9 -29 6 0 19 13 28 30 9 16 19 30 22 30 12 0 60 -86 60 -107 0 -24 -14
-31 -25 -13 -10 16 -35 -8 -28 -26 7 -19 42 -18 50 2 5 15 8 15 17 2 16 -22
29 -22 37 -1 9 24 1 35 -21 28 -13 -4 -19 1 -22 20 -3 14 -4 25 -3 25 1 0 18
-6 36 -14 39 -16 75 -52 82 -81 4 -16 5 -15 6 6 0 14 -8 34 -19 44 -25 23 -25
28 3 40 16 7 22 18 22 43 0 18 7 37 15 43 13 8 12 11 -4 24 -24 18 -36 19 -36
3 0 -6 -15 6 -34 28 l-35 39 8 -36 c5 -20 11 -42 15 -48 4 -6 1 -11 -8 -11
-21 0 -21 -26 0 -34 8 -3 25 -1 36 5 24 13 44 -1 35 -25 -17 -43 -103 -39
-144 7 -36 40 -37 48 -7 45 15 -2 29 2 31 8 2 7 -8 9 -28 6 -31 -5 -31 -5 -27
37 4 43 -6 55 -17 21z m198 -65 c-3 -9 -8 -14 -10 -11 -3 3 -2 9 2 15 9 16 15
13 8 -4z"/>
<path d="M2626 1674 c-9 -8 -16 -23 -17 -32 0 -14 -2 -13 -10 3 -7 16 -8 12
-4 -14 3 -18 5 -43 6 -55 0 -13 7 -4 17 24 10 25 24 45 32 45 19 0 31 28 16
37 -16 11 -23 10 -40 -8z"/>
<path d="M2659 1588 c5 -14 7 -29 4 -32 -4 -3 -1 -6 5 -6 6 0 16 -10 23 -21
10 -19 9 -21 -9 -17 -14 4 -19 1 -18 -11 1 -21 -36 -21 -39 0 -4 21 -55 73
-55 55 0 -8 7 -17 16 -20 8 -3 12 -10 9 -16 -3 -6 10 -25 30 -44 23 -22 34
-28 33 -17 -2 11 4 16 20 15 12 0 22 3 22 8 0 13 28 9 33 -4 3 -9 9 -7 20 7 8
11 13 23 10 28 -2 4 -1 13 5 20 5 7 12 21 16 31 5 14 3 16 -6 9 -25 -20 -77
-33 -84 -21 -4 7 -2 8 4 4 7 -4 12 -1 12 8 0 9 -5 16 -12 16 -6 0 -20 8 -30
17 -18 16 -19 16 -9 -9z"/>
<path d="M2826 1601 c-4 -5 -2 -12 4 -16 5 -3 10 -3 10 1 0 4 7 -1 15 -12 8
-10 15 -14 15 -8 0 17 -37 47 -44 35z"/>
<path d="M70 1535 c0 -8 2 -15 4 -15 2 0 6 7 10 15 3 8 1 15 -4 15 -6 0 -10
-7 -10 -15z"/>
<path d="M39 1499 c14 -13 28 -18 42 -14 26 9 20 15 -26 25 l-37 8 21 -19z"/>
<path d="M2810 1506 c0 -2 9 -6 20 -9 11 -3 18 -1 14 4 -5 9 -34 13 -34 5z"/>
<path d="M175 1461 c-3 -6 4 -24 16 -41 27 -36 31 -38 19 -6 -5 13 -7 26 -4
29 2 2 -2 10 -10 16 -9 8 -16 9 -21 2z"/>
<path d="M2680 1433 c0 -4 5 -15 10 -23 8 -13 10 -13 10 2 0 9 -4 20 -10 23
-5 3 -10 3 -10 -2z"/>
<path d="M256 1395 c18 -31 80 -95 91 -95 4 0 -4 12 -18 26 -13 14 -24 33 -24
42 0 9 -7 17 -15 17 -8 0 -23 9 -34 20 -18 20 -18 19 0 -10z"/>
<path d="M130 1335 c-6 -15 -8 -30 -6 -33 3 -3 10 8 16 23 6 15 8 30 6 33 -3
3 -10 -8 -16 -23z"/>
<path d="M285 1260 c3 -5 8 -10 11 -10 2 0 4 5 4 10 0 6 -5 10 -11 10 -5 0 -7
-4 -4 -10z"/>
<path d="M173 1230 c-30 -12 -29 -18 2 -12 14 2 25 8 25 13 0 5 -1 9 -2 8 -2
0 -13 -4 -25 -9z"/>
<path d="M2811 1134 c-1 -28 19 -36 44 -18 10 8 14 14 9 14 -6 0 -15 -5 -22
-12 -9 -9 -14 -6 -21 13 -9 23 -10 23 -10 3z"/>
<path d="M2885 1140 c-3 -6 -3 -19 0 -31 8 -23 -20 -50 -42 -42 -7 3 -13 0
-13 -6 0 -14 15 -14 39 -1 17 9 18 4 18 -49 0 -31 3 -64 8 -71 4 -7 8 -31 9
-54 1 -36 -2 -41 -21 -41 -12 0 -25 -4 -29 -8 -4 -4 2 -7 14 -7 12 0 32 -6 43
-12 17 -10 23 -10 26 0 3 6 13 12 24 12 10 0 19 4 19 10 0 5 -7 7 -15 4 -19
-8 -40 14 -49 49 -5 23 -3 29 18 37 14 5 30 19 37 31 10 19 8 25 -12 40 -13
10 -32 19 -41 19 -12 0 -18 8 -18 22 0 17 3 19 12 10 15 -15 38 -16 38 -2 0 6
-9 10 -20 10 -54 0 -26 63 30 69 19 1 37 5 40 8 3 3 -12 3 -32 2 -20 -2 -40 0
-44 4 -11 10 -32 9 -39 -3z m29 -151 c-5 -9 1 -10 20 -5 21 5 26 3 26 -11 0
-14 -2 -15 -9 -4 -7 11 -9 11 -13 0 -4 -12 -7 -12 -21 0 -19 15 -22 31 -6 31
5 0 7 -5 3 -11z m11 -39 c3 -5 2 -10 -4 -10 -5 0 -13 5 -16 10 -3 6 -2 10 4
10 5 0 13 -4 16 -10z"/>
<path d="M156 1052 c-2 -4 6 -9 20 -10 13 -1 24 3 24 8 0 12 -37 14 -44 2z"/>
<path d="M2567 1005 c-4 -8 -2 -17 3 -20 6 -4 6 -14 -1 -26 -8 -16 -7 -29 5
-54 9 -18 16 -38 16 -44 0 -6 5 -11 10 -11 13 0 13 13 -2 28 -8 8 -9 18 0 36
9 19 8 27 -3 36 -8 7 -13 16 -10 20 3 5 1 11 -4 15 -6 3 -8 12 -4 20 3 8 3 15
0 15 -3 0 -7 -7 -10 -15z"/>
<path d="M2802 980 c0 -14 2 -19 5 -12 2 6 2 18 0 25 -3 6 -5 1 -5 -13z"/>
<path d="M92 845 c-11 -24 -10 -65 4 -116 3 -11 -3 -19 -17 -22 -14 -4 -18
-10 -13 -18 6 -10 9 -10 12 -1 2 7 18 13 35 13 18 1 24 3 15 6 -26 7 -35 51
-14 66 17 13 31 71 15 61 -5 -3 -13 4 -17 16 -8 21 -8 21 -20 -5z"/>
<path d="M2920 779 c0 -11 4 -18 10 -14 5 3 7 12 3 20 -7 21 -13 19 -13 -6z"/>
<path d="M2600 685 c0 -8 5 -15 10 -15 6 0 10 5 10 10 0 6 12 8 28 4 21 -4 24
-3 12 5 -22 16 -60 13 -60 -4z"/>
<path d="M93 642 c-50 -48 -54 -59 -38 -109 7 -22 8 -22 32 8 20 24 24 37 20
64 -4 26 -1 38 12 47 17 13 36 38 28 38 -2 0 -26 -22 -54 -48z m2 -50 c2 -12
-1 -25 -7 -28 -7 -4 -8 -2 -4 4 4 7 3 12 -3 12 -5 0 -12 -6 -14 -12 -3 -7 -6
-4 -6 8 -1 18 18 48 26 40 2 -2 5 -13 8 -24z"/>
<path d="M210 682 c0 -4 9 -13 20 -19 16 -11 18 -10 14 1 -6 15 -34 30 -34 18z"/>
<path d="M173 620 c0 -25 2 -35 4 -22 2 12 2 32 0 45 -2 12 -4 2 -4 -23z"/>
<path d="M206 594 c-5 -14 -4 -15 9 -4 17 14 19 20 6 20 -5 0 -12 -7 -15 -16z"/>
<path d="M2310 600 c0 -6 5 -8 10 -5 14 9 13 -15 -2 -49 -11 -24 -17 -27 -46
-22 -19 3 -30 1 -27 -5 4 -5 21 -9 38 -9 37 0 77 -24 77 -46 0 -8 5 -14 11
-14 7 0 6 8 -3 23 -22 32 -12 45 30 42 29 -2 31 -1 9 4 -32 7 -37 22 -10 32
16 7 16 8 1 8 -9 1 -19 -3 -23 -9 -10 -16 -34 1 -37 28 -3 25 -28 45 -28 22z"/>
<path d="M392 529 c1 -16 8 -35 15 -41 8 -6 11 -19 8 -28 -3 -11 1 -20 11 -24
21 -8 36 2 32 23 -1 9 8 27 21 40 19 19 25 21 32 10 5 -8 6 -26 3 -41 -3 -14
0 -29 5 -33 6 -3 12 -18 12 -33 1 -21 3 -19 9 12 5 28 2 48 -12 77 -17 35 -21
38 -49 32 -23 -4 -35 -1 -50 16 -28 29 -40 26 -37 -10z"/>
<path d="M1562 520 c-7 -12 -18 -20 -25 -19 -26 3 -37 -2 -37 -16 0 -8 6 -15
14 -15 7 0 26 -6 41 -14 15 -8 34 -12 41 -9 18 7 18 29 0 36 -9 3 -12 15 -9
31 6 31 -7 34 -25 6z"/>
<path d="M1970 515 c0 -14 -6 -28 -14 -31 -19 -7 -10 -30 12 -30 9 0 27 -4 40
-8 17 -6 22 -3 22 9 0 8 -6 18 -14 21 -8 3 -16 18 -20 35 -7 36 -26 39 -26 4z"/>
<path d="M2474 498 c3 -7 7 -28 10 -45 4 -27 2 -33 -11 -33 -15 0 -16 -2 -2
-15 12 -13 21 -13 50 -4 46 16 55 25 39 44 -9 11 -16 12 -25 5 -10 -8 -18 -2
-35 25 -22 36 -32 45 -26 23z"/>
<path d="M2850 497 c0 -18 34 -57 50 -57 10 0 23 -7 30 -15 7 -9 15 -14 17
-11 6 6 -46 56 -59 56 -6 0 -17 8 -24 18 -7 9 -14 13 -14 9z"/>
<path d="M267 440 c3 -11 7 -20 9 -20 2 0 4 9 4 20 0 11 -4 20 -9 20 -5 0 -7
-9 -4 -20z"/>
<path d="M325 420 c-3 -5 -1 -10 4 -10 6 0 11 5 11 10 0 6 -2 10 -4 10 -3 0
-8 -4 -11 -10z"/>
<path d="M1155 400 c4 -6 1 -17 -5 -25 -7 -9 -8 -15 -2 -15 10 0 22 23 22 41
0 5 -5 9 -11 9 -5 0 -7 -5 -4 -10z"/>
<path d="M1810 357 c0 -8 -9 -22 -20 -32 -20 -18 -20 -17 -20 8 0 15 -5 27
-11 27 -7 0 -9 -9 -6 -22 6 -22 -29 -98 -45 -98 -4 0 -8 -9 -8 -20 0 -26 -24
-26 -49 1 -12 13 -24 18 -32 13 -12 -7 -89 -7 -97 0 -1 2 1 11 4 21 7 17 8 17
22 -1 13 -16 14 -17 9 -1 -4 9 -2 17 3 17 13 0 13 30 0 32 -29 4 -35 2 -35
-12 0 -9 -8 -14 -19 -12 -14 3 -17 -1 -12 -13 3 -9 6 -20 6 -25 0 -4 23 -16
50 -26 28 -10 50 -24 50 -31 0 -19 27 -16 39 4 14 26 54 1 67 -41 9 -28 7 -37
-11 -60 -22 -27 -35 -33 -35 -15 0 5 5 7 11 4 6 -4 9 0 7 11 -2 11 2 18 10 17
6 -2 12 2 12 7 0 14 -23 13 -38 -2 -8 -8 -15 -8 -27 2 -10 8 -15 9 -15 1 0 -6
5 -11 10 -11 6 0 15 -11 20 -25 5 -14 17 -25 25 -25 12 0 15 -6 10 -22 -6 -22
-5 -22 6 -3 21 34 42 44 92 45 46 0 47 -1 41 -25 -4 -16 -2 -25 5 -25 7 0 11
8 9 17 -3 15 6 19 52 21 30 2 60 8 67 14 10 8 13 4 13 -16 0 -18 5 -26 18 -25
10 0 12 3 5 6 -21 8 -15 48 12 73 14 13 25 28 25 34 0 5 -18 -7 -39 -28 -33
-32 -44 -38 -68 -32 -21 5 -24 4 -13 -4 11 -7 3 -9 -30 -9 -67 1 -95 12 -98
37 -3 18 1 22 25 22 20 0 24 3 14 9 -15 9 -12 22 15 59 10 13 12 22 5 22 -6 0
-11 -4 -11 -9 0 -13 -42 -21 -56 -10 -15 12 -29 -20 -14 -35 5 -5 10 -23 10
-39 0 -28 -1 -29 -22 -15 -12 8 -28 28 -34 44 -10 24 -9 36 8 71 14 30 24 40
36 36 13 -4 14 -3 3 5 -10 8 -9 12 8 24 32 23 63 66 51 73 -5 3 -10 0 -10 -8z
m-50 -262 l25 -14 -32 -1 c-17 0 -33 -6 -36 -12 -2 -8 -8 -9 -13 -4 -5 5 -4
11 4 13 6 3 12 11 12 19 0 17 8 17 40 -1z"/>
<path d="M1498 332 c-7 -10 -21 -21 -31 -25 -10 -4 -15 -11 -12 -17 9 -15 35
-12 41 5 4 8 12 15 20 15 16 0 19 26 5 35 -5 3 -16 -3 -23 -13z"/>
<path d="M1549 333 c-13 -15 -12 -15 9 -4 23 12 28 21 13 21 -5 0 -15 -7 -22
-17z"/>
<path d="M1660 313 c5 -20 7 -40 4 -44 -6 -11 24 -32 36 -24 17 10 11 33 -10
40 -14 4 -20 15 -20 36 0 16 -4 29 -9 29 -5 0 -5 -16 -1 -37z"/>
<path d="M727 289 c4 -13 9 -17 15 -11 11 11 3 32 -12 32 -4 0 -6 -9 -3 -21z"/>
<path d="M1792 288 c-15 -19 0 -40 32 -41 14 -1 26 -7 26 -13 0 -22 58 -74 82
-74 16 0 19 3 10 9 -11 7 -11 9 2 14 8 3 18 2 21 -3 4 -6 12 -10 18 -10 8 1 7
5 -3 13 -8 7 -15 22 -16 35 0 18 3 21 19 16 13 -4 17 -2 13 5 -11 16 -75 43
-116 47 -19 2 -44 6 -56 9 -12 4 -25 1 -32 -7z m153 -40 c6 -5 -3 -4 -19 2
-40 15 -42 7 -7 -23 28 -23 28 -25 10 -30 -12 -3 -23 2 -30 14 -5 11 -15 16
-21 13 -7 -5 -8 -2 -2 7 5 8 9 17 10 22 1 4 2 10 3 13 1 7 43 -6 56 -18z"/>
<path d="M2870 291 c0 -6 9 -15 20 -21 11 -6 20 -20 20 -30 0 -11 5 -20 11
-20 6 0 24 -9 40 -21 16 -11 29 -16 29 -10 0 5 -9 12 -19 16 -12 3 -21 17 -23
33 -2 18 -8 26 -19 24 -8 -1 -25 7 -37 18 -12 12 -22 16 -22 11z"/>
<path d="M2760 270 c0 -5 5 -10 11 -10 5 0 7 5 4 10 -3 6 -8 10 -11 10 -2 0
-4 -4 -4 -10z"/>
<path d="M1296 234 c-4 -10 -1 -24 7 -31 19 -19 49 -5 45 21 -4 27 -43 34 -52
10z"/>
<path d="M1441 213 c7 -12 15 -20 18 -17 3 2 -3 12 -13 22 -17 16 -18 16 -5
-5z"/>
<path d="M2123 215 c15 -8 27 -19 27 -23 0 -5 15 -8 34 -8 19 0 32 4 30 8 -3
4 -12 8 -20 8 -8 0 -14 4 -14 10 0 5 -10 9 -22 9 -13 -1 -32 1 -43 5 -11 4 -8
0 8 -9z"/>
<path d="M1219 212 c7 -5 10 -15 7 -21 -9 -15 -4 -14 30 4 26 13 26 15 7 15
-12 0 -30 3 -40 6 -14 4 -15 4 -4 -4z"/>
<path d="M1998 188 c9 -9 15 -9 24 0 9 9 7 12 -12 12 -19 0 -21 -3 -12 -12z"/>
<path d="M1276 171 c-4 -5 -2 -21 4 -36 10 -26 9 -27 -15 -21 -25 6 -36 -9
-13 -16 22 -8 57 4 52 16 -3 9 4 11 26 8 23 -3 30 -1 30 13 0 13 -7 16 -29 13
-17 -2 -30 -2 -29 1 3 29 -14 42 -26 22z m71 -37 c-3 -3 -12 -4 -19 -1 -8 3
-5 6 6 6 11 1 17 -2 13 -5z"/>
<path d="M1449 175 c-1 -3 -2 -8 -3 -12 -1 -5 -5 -14 -9 -20 -5 -7 -6 -17 -2
-22 9 -15 -14 -24 -67 -27 -34 -2 -46 1 -41 9 4 7 0 6 -9 -1 -9 -8 -14 -20
-11 -28 6 -17 33 -19 33 -1 0 7 14 12 38 12 20 1 45 5 55 9 14 7 17 3 17 -17
0 -14 -5 -27 -12 -29 -9 -3 -9 -6 0 -12 8 -5 14 2 18 22 5 23 10 28 28 25 18
-4 22 -10 18 -30 -3 -15 1 -29 9 -33 17 -11 40 7 33 25 -8 19 11 27 59 27 l42
0 -52 16 c-41 13 -52 20 -48 33 3 9 -1 19 -9 22 -19 7 -26 -1 -26 -30 0 -23
-14 -29 -44 -17 -14 5 -13 10 5 35 11 16 17 33 14 39 -6 10 -34 14 -36 5z m11
-45 c0 -5 -4 -10 -10 -10 -5 0 -10 5 -10 10 0 6 5 10 10 10 6 0 10 -4 10 -10z"/>
<path d="M2382 150 c0 -19 2 -27 5 -17 2 9 2 25 0 35 -3 9 -5 1 -5 -18z"/>
<path d="M1868 129 c4 -36 7 -40 26 -35 11 3 29 6 39 6 10 0 15 5 12 10 -4 6
-11 8 -16 5 -19 -13 -49 6 -49 31 0 13 -3 24 -8 24 -4 0 -6 -18 -4 -41z"/>
<path d="M2644 160 c-27 -10 -61 -60 -40 -60 7 0 19 7 26 15 28 34 88 7 77
-35 -3 -13 1 -24 13 -30 15 -8 19 -5 24 15 3 13 1 35 -5 48 -14 31 -67 57 -95
47z"/>
<path d="M2060 143 c0 -5 9 -18 20 -28 11 -10 22 -26 25 -36 8 -23 39 -33 64
-20 24 13 18 44 -15 65 -21 15 -24 14 -33 -2 -9 -15 -12 -15 -35 7 -14 14 -26
20 -26 14z m90 -64 c0 -18 -2 -19 -15 -9 -8 7 -15 16 -15 21 0 5 7 9 15 9 9 0
15 -9 15 -21z"/>
<path d="M1185 95 c0 -32 6 -50 24 -69 14 -14 29 -26 35 -26 6 1 -1 11 -16 23
-21 17 -25 26 -17 40 7 11 7 17 -1 17 -5 0 -10 11 -10 24 0 14 -3 27 -7 29 -5
3 -8 -14 -8 -38z"/>
<path d="M2280 133 c0 -18 45 -51 75 -55 24 -2 30 -9 36 -36 10 -49 23 -54 15
-5 l-6 41 43 -5 c31 -3 38 -2 27 6 -8 6 -22 8 -31 6 -9 -3 -22 1 -29 10 -14
17 -40 20 -40 5 0 -20 -41 -9 -65 16 -14 15 -25 23 -25 17z"/>
<path d="M1835 110 c-16 -7 -17 -9 -3 -9 9 -1 20 4 23 9 7 11 7 11 -20 0z"/>
<path d="M428 93 c-24 -6 -23 -33 1 -33 11 0 29 -13 41 -30 19 -27 27 -30 68
-28 l47 1 -45 4 c-50 5 -60 14 -60 61 0 33 -8 37 -52 25z"/>
<path d="M698 83 c13 -11 21 -25 18 -33 -3 -8 -1 -22 4 -30 9 -13 12 -12 25 4
12 16 18 17 27 8 7 -7 23 -12 38 -11 22 0 21 2 -10 12 -30 11 -35 17 -32 40 3
28 -14 37 -35 16 -8 -8 -17 -8 -34 1 l-24 11 23 -18z"/>
<path d="M2634 92 c3 -5 -9 -7 -27 -5 l-32 3 33 -17 c23 -12 35 -14 43 -6 12
12 4 33 -12 33 -6 0 -8 -4 -5 -8z"/>
<path d="M650 85 c0 -5 9 -23 20 -40 11 -17 20 -25 20 -20 0 6 -9 24 -20 40
-11 17 -20 26 -20 20z"/>
<path d="M1275 70 c-3 -5 -1 -10 4 -10 6 0 11 5 11 10 0 6 -2 10 -4 10 -3 0
-8 -4 -11 -10z"/>
<path d="M2662 43 c2 -13 14 -18 43 -19 22 -1 31 0 20 3 -11 3 -24 11 -28 19
-12 20 -39 18 -35 -3z"/>
</g>
</svg>
