<?xml version="1.0" standalone="no"?>
<!DOCTYPE svg PUBLIC "-//W3C//DTD SVG 20010904//EN"
 "http://www.w3.org/TR/2001/REC-SVG-20010904/DTD/svg10.dtd">
<svg version="1.0" xmlns="http://www.w3.org/2000/svg"
 width="512.000000pt" height="512.000000pt" viewBox="0 0 512.000000 512.000000"
 preserveAspectRatio="xMidYMid meet">
<metadata>
Created by potrace 1.16, written by Peter Selinger 2001-2019
</metadata>
<g transform="translate(0.000000,512.000000) scale(0.100000,-0.100000)"
fill="#000000" stroke="none">
<path d="M805 3584 c-203 -27 -503 -102 -594 -148 -25 -13 -64 -43 -87 -65
-96 -97 -119 -209 -118 -566 0 -236 2 -257 28 -375 58 -261 152 -448 300 -596
163 -162 353 -249 646 -295 113 -17 167 -20 330 -16 176 3 204 7 285 31 272
81 506 259 661 501 21 33 66 121 100 196 88 193 117 236 164 250 25 8 51 8 76
2 49 -11 75 -49 155 -224 75 -166 121 -243 203 -346 142 -176 347 -312 571
-379 187 -56 600 -40 832 31 378 117 612 374 714 784 41 165 52 285 46 506 -8
297 -35 409 -121 496 -53 53 -107 80 -237 118 -263 77 -495 111 -746 111 -310
0 -561 -54 -804 -175 -121 -59 -187 -105 -312 -217 -134 -120 -255 -188 -333
-188 -88 0 -200 62 -341 188 -125 112 -191 157 -312 217 -163 81 -321 128
-528 160 -127 19 -436 18 -578 -1z m622 -335 c368 -50 621 -227 702 -493 25
-82 26 -132 5 -256 -79 -462 -357 -724 -789 -746 -378 -20 -682 142 -831 441
-70 142 -85 205 -91 390 -6 189 8 271 62 382 74 150 226 240 470 279 101 15
369 17 472 3z m2733 -4 c315 -48 474 -176 526 -425 23 -107 14 -367 -15 -465
-31 -104 -102 -241 -165 -316 -165 -198 -440 -304 -741 -286 -448 28 -731 320
-787 813 -10 90 -10 109 7 169 26 99 67 174 136 248 126 138 305 224 544 262
111 18 379 18 495 0z"/>
</g>
</svg>
