<?xml version="1.0" standalone="no"?>
<!DOCTYPE svg PUBLIC "-//W3C//DTD SVG 20010904//EN"
 "http://www.w3.org/TR/2001/REC-SVG-20010904/DTD/svg10.dtd">
<svg version="1.0" xmlns="http://www.w3.org/2000/svg"
 width="512.000000pt" height="512.000000pt" viewBox="0 0 512.000000 512.000000"
 preserveAspectRatio="xMidYMid meet">
<metadata>
Created by potrace 1.16, written by Peter Selinger 2001-2019
</metadata>
<g transform="translate(0.000000,512.000000) scale(0.100000,-0.100000)"
fill="#000000" stroke="none">
<path d="M595 3470 c-88 -5 -224 -15 -303 -24 -164 -17 -213 -37 -260 -108
-35 -54 -40 -145 -17 -306 70 -493 267 -889 549 -1106 101 -77 143 -104 235
-150 330 -166 733 -177 1029 -27 273 139 443 368 513 696 35 159 99 225 219
225 123 0 184 -65 220 -233 96 -448 410 -735 861 -788 376 -43 808 124 1061
413 207 236 346 570 403 970 23 161 18 252 -17 306 -51 77 -92 91 -316 114
-241 23 -712 29 -872 9 -384 -46 -626 -140 -847 -329 -149 -127 -184 -137
-493 -137 -309 0 -344 10 -493 137 -220 188 -474 287 -842 328 -132 15 -447
20 -630 10z m765 -355 c95 -14 246 -61 351 -108 136 -61 266 -172 313 -265 56
-111 72 -265 41 -382 -55 -206 -229 -386 -441 -456 -84 -27 -98 -29 -254 -29
-97 0 -190 6 -225 13 -319 69 -517 247 -614 550 -56 175 -82 468 -46 519 28
40 302 128 475 152 41 6 86 13 100 15 62 9 213 5 300 -9z m2829 -9 c191 -35
419 -111 446 -149 36 -51 10 -344 -46 -519 -97 -303 -294 -480 -614 -550 -36
-8 -127 -13 -230 -13 -164 1 -173 2 -256 31 -218 77 -396 270 -438 472 -25
119 -7 261 45 364 31 61 122 154 198 202 114 73 318 149 461 172 98 16 316 11
434 -10z"/>
</g>
</svg>
