<?xml version="1.0" standalone="no"?>
<!DOCTYPE svg PUBLIC "-//W3C//DTD SVG 20010904//EN"
 "http://www.w3.org/TR/2001/REC-SVG-20010904/DTD/svg10.dtd">
<svg version="1.0" xmlns="http://www.w3.org/2000/svg"
 width="999.000000pt" height="969.000000pt" viewBox="0 0 999.000000 969.000000"
 preserveAspectRatio="xMidYMid meet">
<metadata>
Created by potrace 1.16, written by Peter Selinger 2001-2019
</metadata>
<g transform="translate(0.000000,969.000000) scale(0.100000,-0.100000)"
fill="#000000" stroke="none">
<path d="M5105 8708 c-427 -48 -877 -247 -1167 -516 l-47 -44 -583 -79 c-628
-86 -701 -101 -855 -174 -364 -172 -623 -504 -710 -908 -25 -116 -25 -380 1
-497 23 -109 68 -236 115 -325 20 -38 37 -73 39 -77 2 -3 -24 -25 -58 -48 -58
-39 -63 -41 -97 -29 -48 15 -114 5 -175 -28 -141 -77 -215 -274 -151 -401 l21
-44 -69 -108 -70 -108 -39 5 c-28 4 -52 -1 -84 -17 -184 -88 -179 -433 6 -528
l46 -23 7 -102 c6 -91 5 -103 -11 -112 -45 -26 -86 -71 -111 -123 -24 -49 -28
-69 -28 -142 0 -128 42 -214 129 -265 l44 -26 1 -124 2 -124 -39 -20 c-47 -24
-88 -70 -116 -131 -29 -63 -28 -206 1 -270 27 -61 68 -107 114 -131 l39 -19 0
-129 0 -129 -45 -27 c-180 -105 -175 -433 6 -526 l39 -19 0 -123 0 -123 -45
-22 c-84 -41 -143 -170 -132 -289 13 -138 104 -253 199 -253 20 0 30 -16 72
-112 46 -109 47 -113 31 -138 -46 -71 -57 -111 -53 -189 6 -100 40 -173 113
-239 110 -101 242 -92 306 22 l22 39 81 -7 c44 -3 82 -10 84 -15 1 -4 16 -29
31 -54 23 -35 44 -52 97 -78 63 -31 76 -34 159 -33 69 0 101 5 136 21 58 26
113 81 130 128 14 38 15 39 122 55 l69 11 38 -34 c50 -46 98 -61 175 -54 162
13 305 144 305 279 0 66 -21 111 -68 145 -31 23 -37 32 -31 48 5 11 18 46 30
78 16 44 25 57 41 57 78 0 179 74 223 163 14 29 30 80 36 113 l10 59 117 1
c141 0 225 19 338 75 365 180 516 616 340 984 -75 157 -187 270 -341 346 -100
49 -175 68 -290 76 -345 22 -660 -208 -756 -553 -31 -110 -31 -268 0 -378 33
-119 93 -226 176 -314 l73 -77 -39 -54 c-47 -65 -69 -134 -69 -211 0 -71 14
-114 53 -164 l30 -39 -28 -83 -29 -82 -52 -7 c-142 -17 -293 -155 -294 -267 0
-29 -1 -30 -120 -46 l-55 -7 -30 40 c-40 51 -85 82 -154 101 -137 41 -318 -22
-360 -125 -11 -25 -13 -26 -91 -23 l-80 4 0 32 c0 136 -124 288 -248 303 -57
6 -55 4 -122 165 l-24 58 38 36 c50 49 77 114 83 200 9 125 -44 242 -129 287
l-38 19 0 128 0 128 29 11 c41 17 86 68 113 126 33 72 33 208 0 280 -27 58
-72 109 -113 126 l-29 11 0 138 0 138 29 11 c41 17 86 68 113 126 18 40 23 67
23 140 0 73 -5 100 -23 140 -27 58 -72 109 -113 126 l-29 11 0 133 0 133 29
11 c41 17 86 68 113 126 33 72 33 208 -1 282 -25 57 -86 119 -131 134 -27 10
-28 12 -35 112 -4 67 -3 103 3 105 39 13 93 67 118 119 25 51 29 69 29 148 0
76 -4 99 -26 145 -15 30 -36 65 -49 78 l-22 23 71 107 71 107 44 -3 c146 -12
295 134 312 306 7 61 8 63 56 98 28 19 56 38 62 40 7 3 48 -32 92 -77 297
-306 699 -445 1111 -383 543 80 978 506 1073 1049 9 56 9 217 -4 800 -9 401
-19 738 -22 750 -10 42 298 213 512 284 539 180 1120 105 1595 -206 84 -55 88
-60 84 -88 -3 -16 -12 -355 -20 -753 -14 -656 -14 -731 0 -807 117 -623 677
-1069 1310 -1041 331 14 610 138 846 375 240 241 361 513 376 847 25 569 -318
1072 -862 1264 -78 27 -168 42 -697 115 l-607 83 -63 56 c-135 121 -340 252
-524 334 -327 146 -729 210 -1079 170z m-1923 -903 c147 -26 293 -85 423 -170
76 -50 239 -212 288 -286 134 -205 196 -431 184 -668 -14 -268 -122 -509 -316
-702 -141 -141 -304 -235 -508 -291 -66 -19 -104 -22 -253 -22 -158 0 -185 3
-272 26 -550 149 -891 682 -793 1241 76 437 430 791 872 871 101 18 277 19
375 1z m4750 -18 c407 -106 714 -436 793 -850 31 -163 15 -385 -39 -543 -116
-341 -396 -603 -747 -699 -117 -33 -306 -44 -430 -25 -276 40 -541 197 -710
419 -71 94 -155 267 -186 386 -23 89 -26 119 -26 265 0 147 3 176 26 265 32
119 116 294 186 386 161 212 408 364 674 415 114 22 338 12 459 -19z m-6254
-1867 c-26 -41 56 -147 94 -124 8 5 9 -5 5 -31 -13 -79 -108 -180 -180 -192
-31 -5 -32 -4 -32 29 0 27 -4 34 -24 36 -13 2 -28 -1 -34 -7 -19 -19 -25 -13
-32 29 -15 89 60 220 150 261 55 25 69 25 53 -1z m-448 -699 c-14 -28 3 -61
32 -61 12 0 32 12 44 27 l22 27 21 -34 c34 -56 47 -133 33 -197 -11 -52 -52
-123 -72 -123 -5 0 -10 19 -12 43 -3 35 -7 43 -26 45 -35 5 -52 -15 -52 -61
l0 -40 -26 24 c-64 60 -90 175 -60 266 16 48 54 95 86 105 21 7 23 3 10 -21z
m168 -820 c49 -86 36 -222 -26 -288 l-26 -28 -6 35 c-8 48 -17 60 -45 60 -29
0 -33 -6 -37 -53 -1 -21 -5 -37 -9 -37 -4 0 -21 15 -37 34 -62 71 -65 210 -7
298 31 47 43 48 47 6 6 -60 78 -47 78 14 0 29 1 30 23 16 12 -8 33 -34 45 -57z
m-124 -776 c17 -13 23 -13 44 1 32 21 45 14 79 -43 24 -42 28 -58 28 -129 0
-72 -3 -86 -30 -129 -35 -56 -55 -68 -55 -33 0 36 -22 60 -51 56 -20 -2 -25
-9 -27 -40 -4 -44 -13 -47 -43 -15 -72 75 -74 244 -4 320 30 31 33 32 59 12z
m2424 -441 c42 -8 115 -34 162 -56 120 -57 239 -177 298 -298 122 -250 82
-538 -102 -737 -114 -123 -246 -191 -415 -214 -96 -13 -210 1 -226 27 -48 80
-95 107 -180 102 -59 -3 -66 -1 -105 31 -47 38 -121 133 -156 203 -62 122 -83
320 -49 453 88 344 429 559 773 489z m-2422 -390 c23 -16 26 -15 44 1 26 24
44 15 75 -39 48 -81 44 -200 -7 -276 -32 -47 -48 -49 -48 -7 0 20 -7 43 -16
51 -33 33 -64 11 -64 -46 0 -50 -22 -50 -55 0 -58 88 -55 227 7 298 16 19 32
34 34 34 3 0 16 -7 30 -16z m-6 -809 c16 -19 35 -19 55 1 15 15 18 14 46 -12
39 -37 63 -120 56 -189 -5 -54 -34 -122 -61 -144 -13 -11 -18 -7 -32 28 -17
44 -43 65 -68 55 -22 -8 -28 -38 -15 -68 19 -40 1 -45 -31 -9 -76 85 -75 246
3 331 24 26 30 27 47 7z m1981 -120 c41 -19 79 -35 86 -35 18 0 17 -87 -2
-141 -21 -59 -59 -105 -106 -129 -43 -22 -48 -16 -29 34 11 30 5 52 -17 60
-27 11 -49 -3 -62 -40 -12 -33 -14 -35 -29 -20 -23 23 -28 123 -8 183 16 47
69 123 86 123 5 0 41 -16 81 -35z m-1653 -652 c54 -41 102 -131 102 -194 0
-29 -1 -29 -58 -29 -56 0 -82 -11 -82 -36 0 -26 32 -44 77 -44 45 0 46 0 29
-19 -28 -31 -69 -35 -119 -13 -99 44 -163 195 -126 300 9 28 13 30 44 25 30
-5 36 -2 46 21 14 31 35 28 87 -11z m1371 -18 c-15 -41 -5 -68 28 -73 24 -4
37 11 52 61 7 20 15 37 19 37 3 0 16 -10 29 -22 16 -15 23 -33 23 -60 0 -49
-12 -72 -63 -126 -66 -67 -174 -99 -244 -70 l-28 11 35 7 c49 9 60 17 60 45 0
33 -26 45 -80 35 -25 -5 -47 -7 -49 -5 -6 7 8 49 28 81 27 43 83 84 144 105
29 10 53 16 55 14 2 -2 -2 -20 -9 -40z m-676 -139 c47 -14 107 -51 107 -66 0
-4 -12 -11 -27 -15 -53 -13 -67 -40 -37 -70 11 -11 25 -14 45 -10 40 9 37 -7
-8 -44 -85 -70 -237 -65 -320 12 -32 29 -29 35 18 39 81 6 79 69 -2 78 l-44 5
29 28 c54 51 154 69 239 43z"/>
</g>
</svg>
