<!DOCTYPE svg PUBLIC "-//W3C//DTD SVG 20010904//EN" "http://www.w3.org/TR/2001/REC-SVG-20010904/DTD/svg10.dtd">
<svg version="1.0" xmlns="http://www.w3.org/2000/svg" width="600px" height="425px" viewBox="0 0 6000 4250" preserveAspectRatio="xMidYMid meet">
<g id="layer1" fill="#000000" stroke="none">
 <path d="M3741 3820 c-330 -112 -335 -114 -501 -276 -76 -74 -91 -84 -147 -98 -49 -13 -75 -14 -130 -6 -37 5 -73 10 -78 10 -6 0 -30 25 -55 56 -25 31 -90 91 -145 133 -115 87 -209 129 -413 186 l-129 35 -319 0 -319 0 -305 -170 -305 -169 -122 -143 c-122 -142 -123 -144 -198 -313 l-75 -170 -55 -395 c-30 -217 -55 -399 -55 -405 0 -5 39 -54 88 -107 71 -80 172 -165 552 -465 256 -202 605 -471 775 -598 171 -127 382 -293 469 -369 88 -76 205 -172 260 -214 l101 -77 95 -6 c52 -4 124 -10 160 -14 65 -7 66 -7 170 45 58 29 237 134 399 234 l294 181 36 73 35 72 -52 105 c-36 74 -57 105 -69 105 -10 0 -67 -5 -128 -10 l-109 -11 -56 -48 c-30 -26 -89 -73 -131 -104 -49 -37 -129 -117 -230 -232 l-154 -176 -65 7 c-36 4 -76 14 -90 24 -14 10 -114 92 -223 183 l-198 164 -105 171 -106 170 -227 176 c-125 96 -245 196 -266 221 -20 26 -85 82 -143 126 -58 44 -163 132 -233 197 l-128 117 522 6 c1260 15 2911 6 2904 -15 -2 -6 -191 -99 -421 -206 l-417 -195 -108 -128 c-104 -125 -111 -130 -232 -203 -98 -58 -148 -81 -229 -104 -94 -27 -109 -29 -173 -20 -38 6 -73 13 -78 16 -23 14 -104 135 -184 274 -111 195 -199 314 -278 379 -60 50 -64 51 -127 51 -58 0 -71 -4 -115 -34 -35 -23 -59 -50 -79 -88 l-29 -54 27 -76 28 -76 91 -63 c66 -44 163 -132 342 -310 l250 -248 89 -22 89 -22 61 22 c33 13 210 77 391 142 l330 119 135 92 c74 51 160 110 190 130 30 21 246 121 480 222 473 205 952 425 982 453 19 17 20 26 14 138 -4 66 -22 233 -42 372 l-34 251 -134 274 -133 273 -176 165 -177 165 -195 87 -196 87 -204 16 c-113 8 -212 15 -222 14 -10 0 -150 -45 -312 -99z"/>
 </g>

</svg>