<?xml version="1.0" standalone="no"?>
<!DOCTYPE svg PUBLIC "-//W3C//DTD SVG 20010904//EN"
 "http://www.w3.org/TR/2001/REC-SVG-20010904/DTD/svg10.dtd">
<svg version="1.0" xmlns="http://www.w3.org/2000/svg"
 width="512.000000pt" height="512.000000pt" viewBox="0 0 512.000000 512.000000"
 preserveAspectRatio="xMidYMid meet">
<metadata>
Created by potrace 1.16, written by Peter Selinger 2001-2019
</metadata>
<g transform="translate(0.000000,512.000000) scale(0.100000,-0.100000)"
fill="#000000" stroke="none">
<path d="M1435 4154 c-220 -53 -412 -234 -487 -459 -19 -59 -23 -90 -23 -205
0 -115 3 -145 23 -205 40 -118 81 -184 172 -276 148 -148 298 -206 518 -197
213 9 386 99 511 265 77 102 112 196 136 364 5 36 7 37 85 63 127 42 290 33
383 -21 29 -18 33 -24 39 -86 27 -236 190 -447 418 -540 91 -38 140 -46 256
-47 388 -1 684 293 684 679 0 120 -19 202 -72 311 -33 68 -57 101 -127 170
-139 138 -286 200 -482 200 -245 0 -466 -123 -585 -326 -14 -24 -28 -44 -30
-44 -2 0 -37 11 -79 25 -161 54 -320 54 -484 -1 -40 -14 -75 -23 -76 -22 -1 2
-18 28 -37 59 -89 140 -239 247 -406 290 -90 23 -248 24 -337 3z m1217 -409
c37 -7 88 -23 114 -34 44 -20 45 -22 39 -53 -14 -70 -9 -67 -73 -44 -84 30
-311 29 -394 -1 l-58 -22 -5 22 c-18 71 -13 80 47 104 104 42 219 52 330 28z"/>
<path d="M779 3603 c-105 -65 -63 -241 57 -243 l32 0 0 130 0 130 -32 0 c-17
0 -43 -8 -57 -17z"/>
<path d="M4204 3490 l0 -130 28 0 c69 0 118 54 118 130 0 72 -52 130 -117 130
l-29 0 0 -130z"/>
<path d="M1668 2236 c-236 -42 -415 -151 -616 -375 -93 -103 -238 -224 -335
-279 -97 -56 -244 -108 -363 -129 -52 -9 -94 -20 -94 -24 0 -4 17 -10 38 -14
68 -13 443 -141 702 -240 476 -182 629 -225 802 -225 165 0 261 42 371 160
146 158 250 443 332 910 14 79 22 147 17 151 -8 7 -129 31 -277 54 -138 22
-477 28 -577 11z"/>
<path d="M3025 2243 c-185 -22 -415 -61 -427 -72 -5 -4 3 -72 17 -151 82 -467
186 -752 332 -910 110 -118 206 -160 371 -160 173 0 326 43 802 225 259 99
634 227 703 240 20 4 37 10 37 14 0 4 -42 15 -94 24 -119 21 -266 73 -363 129
-97 55 -242 176 -335 279 -264 294 -481 391 -863 387 -82 0 -163 -3 -180 -5z"/>
<path d="M2545 1943 c-21 -143 -95 -423 -146 -550 -16 -40 -29 -77 -29 -82 0
-12 114 -31 190 -31 76 0 190 19 190 31 0 5 -13 42 -30 83 -42 107 -93 289
-126 454 -16 78 -32 142 -35 142 -4 0 -10 -21 -14 -47z"/>
</g>
</svg>
