<?xml version="1.0" standalone="no"?>
<!DOCTYPE svg PUBLIC "-//W3C//DTD SVG 20010904//EN"
 "http://www.w3.org/TR/2001/REC-SVG-20010904/DTD/svg10.dtd">
<svg version="1.0" xmlns="http://www.w3.org/2000/svg"
 width="512.000000pt" height="512.000000pt" viewBox="0 0 512.000000 512.000000"
 preserveAspectRatio="xMidYMid meet">
<metadata>
Created by potrace 1.16, written by Peter Selinger 2001-2019
</metadata>
<g transform="translate(0.000000,512.000000) scale(0.100000,-0.100000)"
fill="#000000" stroke="none">
<path d="M2035 5100 c-408 -72 -736 -242 -1017 -527 -347 -351 -530 -796 -530
-1293 0 -658 324 -1231 895 -1584 453 -280 1074 -337 1587 -146 372 139 685
390 907 727 109 166 208 399 250 591 l18 82 52 0 53 0 0 -118 c0 -116 -1 -119
-24 -130 -46 -21 -105 -83 -123 -130 -23 -61 -26 -353 -4 -416 17 -48 81 -119
121 -136 l30 -12 0 -168 0 -167 -24 -11 c-46 -21 -105 -83 -123 -130 -23 -61
-26 -353 -4 -416 17 -48 81 -119 121 -136 l30 -12 0 -128 0 -128 -30 -12 c-40
-17 -104 -88 -121 -136 -19 -54 -19 -354 0 -408 18 -51 76 -115 126 -137 54
-25 157 -25 210 0 49 23 99 74 119 123 25 58 22 388 -3 443 -19 43 -85 109
-120 120 -20 6 -21 13 -21 134 l0 129 30 12 c42 17 106 91 120 137 7 24 10
104 8 225 l-3 186 -30 44 c-17 24 -52 57 -77 73 l-47 30 0 166 -1 167 30 12
c42 17 106 91 120 137 7 24 10 104 8 225 l-3 186 -30 44 c-17 24 -52 57 -77
73 l-47 30 0 127 -1 126 29 7 c43 9 119 67 156 119 43 61 58 119 53 208 -6
119 -67 213 -174 268 -44 23 -63 25 -191 28 -135 3 -143 5 -143 23 0 33 -47
207 -80 296 -56 154 -166 354 -267 486 -67 88 -215 239 -303 310 -257 207
-557 338 -896 391 -140 22 -425 20 -559 -4z m543 -165 c360 -58 675 -218 932
-475 322 -322 490 -728 490 -1185 0 -271 -60 -522 -181 -754 -295 -566 -857
-912 -1484 -913 -376 0 -714 112 -1010 336 -422 319 -665 803 -666 1326 -1
162 11 268 47 412 144 580 596 1046 1174 1210 203 57 494 75 698 43z m1830
-1525 c85 -52 98 -177 25 -243 -19 -16 -21 -16 -43 8 -43 46 -140 22 -140 -35
0 -17 -7 -20 -40 -20 l-40 0 0 155 0 155 103 0 c84 0 108 -4 135 -20z m-43
-926 l35 15 0 -146 c0 -141 -1 -146 -18 -130 -22 20 -83 22 -100 5 -23 -23
-32 12 -32 129 0 142 1 146 46 127 30 -12 39 -12 69 0z m0 -1040 l35 15 0
-140 c0 -135 -1 -139 -19 -129 -24 12 -81 13 -101 0 -24 -15 -30 8 -30 127 0
142 1 146 46 127 30 -12 39 -12 69 0z m-35 -964 c17 0 40 5 51 10 18 10 19 6
19 -135 0 -132 -2 -147 -20 -165 -22 -22 -60 -26 -90 -10 -29 15 -40 65 -40
181 0 125 4 143 30 129 10 -6 33 -10 50 -10z"/>
<path d="M2075 4864 c-641 -107 -1148 -575 -1304 -1202 -59 -239 -58 -540 4
-782 142 -560 592 -1009 1157 -1156 196 -50 464 -60 670 -25 330 57 614 205
856 444 309 305 472 696 472 1132 0 441 -154 819 -458 1129 -247 251 -543 403
-902 462 -107 17 -386 16 -495 -2z m540 -178 c593 -134 1034 -596 1131 -1185
27 -170 14 -432 -32 -590 -81 -286 -233 -527 -448 -713 -371 -321 -868 -430
-1339 -293 -399 115 -740 415 -908 798 -163 370 -162 794 3 1159 199 442 593
747 1078 834 101 18 419 12 515 -10z"/>
<path d="M2278 4548 c-51 -40 -38 -126 22 -147 18 -6 60 -11 92 -11 87 0 243
-35 350 -78 282 -113 503 -334 618 -617 45 -110 80 -264 80 -354 0 -81 19
-125 60 -139 44 -16 97 6 106 44 4 15 4 74 1 133 -17 303 -159 605 -386 824
-224 215 -509 340 -806 354 -92 4 -124 2 -137 -9z"/>
</g>
</svg>
