<?xml version="1.0" encoding="UTF-8" standalone="no"?>
<!-- Created with Inkscape (http://www.inkscape.org/) -->

<svg
   xmlns:dc="http://purl.org/dc/elements/1.1/"
   xmlns:cc="http://creativecommons.org/ns#"
   xmlns:rdf="http://www.w3.org/1999/02/22-rdf-syntax-ns#"
   xmlns:svg="http://www.w3.org/2000/svg"
   xmlns="http://www.w3.org/2000/svg"
   xmlns:sodipodi="http://sodipodi.sourceforge.net/DTD/sodipodi-0.dtd"
   xmlns:inkscape="http://www.inkscape.org/namespaces/inkscape"
   width="159.97995mm"
   height="36.862896mm"
   viewBox="0 0 159.97995 36.862896"
   version="1.1"
   id="svg73649"
   inkscape:version="0.92.2 5c3e80d, 2017-08-06"
   sodipodi:docname="eyeglasses1.svg">
  <defs
     id="defs73643" />
  <sodipodi:namedview
     id="base"
     pagecolor="#ffffff"
     bordercolor="#666666"
     borderopacity="1.0"
     inkscape:pageopacity="0.0"
     inkscape:pageshadow="2"
     inkscape:zoom="0.98994949"
     inkscape:cx="318.4297"
     inkscape:cy="26.290918"
     inkscape:document-units="mm"
     inkscape:current-layer="layer1"
     showgrid="true"
     inkscape:snap-global="false"
     fit-margin-top="0"
     fit-margin-left="0"
     fit-margin-right="0"
     fit-margin-bottom="0"
     inkscape:pagecheckerboard="true"
     inkscape:window-width="1920"
     inkscape:window-height="942"
     inkscape:window-x="0"
     inkscape:window-y="23"
     inkscape:window-maximized="0">
    <inkscape:grid
       type="xygrid"
       id="grid74259"
       originx="-24.434915"
       originy="-142.27606" />
  </sodipodi:namedview>
  <metadata
     id="metadata73646">
    <rdf:RDF>
      <cc:Work
         rdf:about="">
        <dc:format>image/svg+xml</dc:format>
        <dc:type
           rdf:resource="http://purl.org/dc/dcmitype/StillImage" />
        <dc:title></dc:title>
      </cc:Work>
    </rdf:RDF>
  </metadata>
  <g
     inkscape:label="Layer 1"
     inkscape:groupmode="layer"
     id="layer1"
     transform="translate(-24.434915,-117.86104)">
    <path
       style="fill:#000000;stroke-width:0.99999994"
       d="m 146,445.46094 c -18.04412,-0.0611 -42.27964,1.53261 -51.509766,9.85156 -2.498387,2.25175 -3.010704,4.37319 -0.441406,5.43164 6.816182,2.808 18.857742,6.47963 27.564452,16.54883 16.62463,19.22617 13.09253,26.07527 47.83984,63.55078 34.99008,37.73732 68.80306,39.06987 91.00977,42.69531 29.75024,4.857 71.08167,-4.95225 90.58203,-21.62695 15.88944,-13.58701 19.96321,-33.51036 27.35742,-36.53516 10.03975,-4.10703 23.59908,-3.91254 32.54883,0 7.32005,3.20009 11.46603,22.94817 27.35547,36.53516 19.5004,16.67471 60.83178,26.48395 90.58203,21.62695 22.20673,-3.62543 56.0197,-4.95797 91.00977,-42.69531 34.74735,-37.47549 31.21716,-44.32459 47.84179,-63.55078 8.70671,-10.06919 20.74827,-13.74083 27.56446,-16.54883 2.56928,-1.05846 2.05697,-3.17991 -0.44141,-5.43164 -11.36016,-10.2387 -45.44996,-10.29031 -62.75195,-9.60742 -39.76691,1.5696 -55.11339,1.80322 -112.22266,15.70508 -83.59709,20.34968 -104.64725,29.87143 -125.21289,29.87109 -20.56497,-3.4e-4 -41.61849,-9.52206 -125.21289,-29.87109 -57.10923,-13.90186 -72.45384,-14.13549 -112.2207,-15.70508 -3.24413,-0.12805 -7.07816,-0.23005 -11.24219,-0.24414 z m 53.39648,25.26758 c 22.81416,-0.0851 40.60352,1.79113 77.53125,12.25195 61.80039,17.5067 82.60387,24.9733 81.49805,39.98047 -0.95998,13.02794 -12.35104,25.92015 -22.29101,32.08398 -25.00342,15.50476 -49.4514,16.8776 -76.50196,13.26172 -37.03812,-4.95093 -77.69105,-26.43783 -91.25,-56.71289 -14.73181,-32.89387 7.91059,-40.77907 31.01367,-40.86523 z m 390.56055,0 c 23.10308,0.0862 45.74548,7.97136 31.01367,40.86523 -13.55898,30.27504 -54.21383,51.76194 -91.25195,56.71289 -27.05057,3.61587 -51.49657,2.24304 -76.5,-13.26172 -9.93997,-6.1638 -21.33102,-19.05606 -22.29102,-32.08398 -1.10581,-15.00718 19.69764,-22.47378 81.49805,-39.98047 36.92776,-10.46083 54.71708,-12.33699 77.53125,-12.25195 z"
       transform="scale(0.26458333)"
       id="path74261"
       inkscape:connector-curvature="0"
       sodipodi:nodetypes="ssssssssssssscccssscsssssssscssccsc" />
  </g>
</svg>
